<?xml version="1.0" encoding="utf-8"?>
<!-- Generator: Adobe Illustrator 27.5.0, SVG Export Plug-In . SVG Version: 6.00 Build 0)  -->
<svg version="1.1" xmlns="http://www.w3.org/2000/svg" xmlns:xlink="http://www.w3.org/1999/xlink" x="0px" y="0px"
	 viewBox="0 0 500 500" style="enable-background:new 0 0 500 500;" xml:space="preserve">
<g id="BACKGROUND">
	<radialGradient id="SVGID_1_" cx="35.25" cy="251.25" r="327.1238" gradientUnits="userSpaceOnUse">
		<stop  offset="0" style="stop-color:#003B56"/>
		<stop  offset="1" style="stop-color:#051C2C"/>
	</radialGradient>
	<rect style="fill:url(#SVGID_1_);" width="500" height="500"/>
</g>
<g id="OBJECTS">
	<g>
		
			<linearGradient id="SVGID_00000178163988658467521690000015338483866914805646_" gradientUnits="userSpaceOnUse" x1="192.1212" y1="130.8266" x2="191.9164" y2="134.3084">
			<stop  offset="0" style="stop-color:#FFFFFF"/>
			<stop  offset="1" style="stop-color:#FFFFFF;stop-opacity:0"/>
		</linearGradient>
		<path style="fill:url(#SVGID_00000178163988658467521690000015338483866914805646_);" d="M193.084,132.032
			c0,0.571-0.463,1.033-1.033,1.033c-0.571,0-1.033-0.463-1.033-1.033c0-0.571,0.462-1.033,1.033-1.033
			C192.621,130.998,193.084,131.461,193.084,132.032z"/>
		
			<linearGradient id="SVGID_00000011032179396446560710000003992704943922892946_" gradientUnits="userSpaceOnUse" x1="422.8135" y1="324.545" x2="422.6087" y2="328.0266">
			<stop  offset="0" style="stop-color:#FFFFFF"/>
			<stop  offset="1" style="stop-color:#FFFFFF;stop-opacity:0"/>
		</linearGradient>
		<path style="fill:url(#SVGID_00000011032179396446560710000003992704943922892946_);" d="M423.776,325.75
			c0,0.571-0.463,1.033-1.034,1.033c-0.571,0-1.033-0.463-1.033-1.033s0.463-1.033,1.033-1.033
			C423.313,324.717,423.776,325.179,423.776,325.75z"/>
		
			<linearGradient id="SVGID_00000135665848502888742690000016882142045828132013_" gradientUnits="userSpaceOnUse" x1="350.0247" y1="420.5115" x2="349.8199" y2="423.9933">
			<stop  offset="0" style="stop-color:#FFFFFF"/>
			<stop  offset="1" style="stop-color:#FFFFFF;stop-opacity:0"/>
		</linearGradient>
		<path style="fill:url(#SVGID_00000135665848502888742690000016882142045828132013_);" d="M350.987,421.717
			c0,0.571-0.463,1.033-1.033,1.033c-0.571,0-1.033-0.463-1.033-1.033s0.463-1.034,1.033-1.034
			C350.524,420.683,350.987,421.146,350.987,421.717z"/>
		
			<linearGradient id="SVGID_00000172432150000710983100000009407074219302719136_" gradientUnits="userSpaceOnUse" x1="395.5635" y1="219.8102" x2="395.3587" y2="223.2919">
			<stop  offset="0" style="stop-color:#FFFFFF"/>
			<stop  offset="1" style="stop-color:#FFFFFF;stop-opacity:0"/>
		</linearGradient>
		<path style="fill:url(#SVGID_00000172432150000710983100000009407074219302719136_);" d="M396.526,221.015
			c0,0.571-0.463,1.033-1.034,1.033c-0.571,0-1.033-0.463-1.033-1.033c0-0.571,0.463-1.033,1.033-1.033
			C396.063,219.982,396.526,220.445,396.526,221.015z"/>
		
			<linearGradient id="SVGID_00000095306121505946653340000001235034972533915779_" gradientUnits="userSpaceOnUse" x1="467.5635" y1="171.0602" x2="467.3587" y2="174.5419">
			<stop  offset="0" style="stop-color:#FFFFFF"/>
			<stop  offset="1" style="stop-color:#FFFFFF;stop-opacity:0"/>
		</linearGradient>
		<path style="fill:url(#SVGID_00000095306121505946653340000001235034972533915779_);" d="M468.526,172.265
			c0,0.571-0.463,1.033-1.034,1.033c-0.571,0-1.033-0.463-1.033-1.033c0-0.571,0.463-1.033,1.033-1.033
			C468.063,171.232,468.526,171.695,468.526,172.265z"/>
		
			<linearGradient id="SVGID_00000121965959614512588670000012466515595186321061_" gradientUnits="userSpaceOnUse" x1="327.8734" y1="374.2755" x2="327.6685" y2="377.7572">
			<stop  offset="0" style="stop-color:#FFFFFF"/>
			<stop  offset="1" style="stop-color:#FFFFFF;stop-opacity:0"/>
		</linearGradient>
		<path style="fill:url(#SVGID_00000121965959614512588670000012466515595186321061_);" d="M328.836,375.48
			c0,0.571-0.463,1.033-1.033,1.033s-1.033-0.463-1.033-1.033c0-0.571,0.463-1.033,1.033-1.033S328.836,374.91,328.836,375.48z"/>
		
			<linearGradient id="SVGID_00000089557289105078644150000013714919567153850244_" gradientUnits="userSpaceOnUse" x1="456.3382" y1="373.2421" x2="456.1334" y2="376.7239">
			<stop  offset="0" style="stop-color:#FFFFFF"/>
			<stop  offset="1" style="stop-color:#FFFFFF;stop-opacity:0"/>
		</linearGradient>
		<path style="fill:url(#SVGID_00000089557289105078644150000013714919567153850244_);" d="M457.301,374.447
			c0,0.571-0.463,1.033-1.033,1.033c-0.571,0-1.033-0.463-1.033-1.033c0-0.571,0.463-1.033,1.033-1.033
			C456.838,373.414,457.301,373.876,457.301,374.447z"/>
		
			<linearGradient id="SVGID_00000051375950066575046630000004394456851382948264_" gradientUnits="userSpaceOnUse" x1="118.4612" y1="385.5983" x2="118.2564" y2="389.0803">
			<stop  offset="0" style="stop-color:#FFFFFF"/>
			<stop  offset="1" style="stop-color:#FFFFFF;stop-opacity:0"/>
		</linearGradient>
		<path style="fill:url(#SVGID_00000051375950066575046630000004394456851382948264_);" d="M119.424,386.803
			c0,0.571-0.463,1.034-1.033,1.034c-0.571,0-1.033-0.463-1.033-1.034c0-0.571,0.463-1.033,1.033-1.033
			C118.961,385.77,119.424,386.233,119.424,386.803z"/>
		
			<linearGradient id="SVGID_00000160889011336877607380000000532362458722238871_" gradientUnits="userSpaceOnUse" x1="219.9121" y1="398.0858" x2="219.7073" y2="401.5676">
			<stop  offset="0" style="stop-color:#FFFFFF"/>
			<stop  offset="1" style="stop-color:#FFFFFF;stop-opacity:0"/>
		</linearGradient>
		<path style="fill:url(#SVGID_00000160889011336877607380000000532362458722238871_);" d="M220.875,399.291
			c0,0.571-0.463,1.033-1.033,1.033c-0.571,0-1.034-0.463-1.034-1.033c0-0.571,0.463-1.033,1.034-1.033
			C220.412,398.258,220.875,398.72,220.875,399.291z"/>
		
			<linearGradient id="SVGID_00000042722096953880012850000016513519848672921768_" gradientUnits="userSpaceOnUse" x1="134.902" y1="121.5705" x2="134.6972" y2="125.0523">
			<stop  offset="0" style="stop-color:#FFFFFF"/>
			<stop  offset="1" style="stop-color:#FFFFFF;stop-opacity:0"/>
		</linearGradient>
		<path style="fill:url(#SVGID_00000042722096953880012850000016513519848672921768_);" d="M135.864,122.776
			c0,0.571-0.463,1.033-1.033,1.033c-0.57,0-1.033-0.463-1.033-1.033c0-0.571,0.463-1.033,1.033-1.033
			C135.402,121.742,135.864,122.205,135.864,122.776z"/>
		
			<linearGradient id="SVGID_00000044871429521027954270000013483493499361292980_" gradientUnits="userSpaceOnUse" x1="355.4752" y1="91.7473" x2="355.2704" y2="95.2291">
			<stop  offset="0" style="stop-color:#FFFFFF"/>
			<stop  offset="1" style="stop-color:#FFFFFF;stop-opacity:0"/>
		</linearGradient>
		<path style="fill:url(#SVGID_00000044871429521027954270000013483493499361292980_);" d="M356.438,92.952
			c0,0.571-0.463,1.034-1.034,1.034c-0.571,0-1.033-0.463-1.033-1.034c0-0.571,0.463-1.033,1.033-1.033
			C355.975,91.919,356.438,92.382,356.438,92.952z"/>
		
			<linearGradient id="SVGID_00000139253094746790452550000001982763430011703475_" gradientUnits="userSpaceOnUse" x1="262.0338" y1="185.8509" x2="261.829" y2="189.3327">
			<stop  offset="0" style="stop-color:#FFFFFF"/>
			<stop  offset="1" style="stop-color:#FFFFFF;stop-opacity:0"/>
		</linearGradient>
		<path style="fill:url(#SVGID_00000139253094746790452550000001982763430011703475_);" d="M262.996,187.056
			c0,0.571-0.463,1.033-1.033,1.033c-0.571,0-1.033-0.463-1.033-1.033c0-0.571,0.463-1.034,1.033-1.034
			C262.534,186.023,262.996,186.485,262.996,187.056z"/>
		
			<linearGradient id="SVGID_00000007404047064145245170000016083233522515305108_" gradientUnits="userSpaceOnUse" x1="241.6593" y1="50.2732" x2="241.4545" y2="53.7549">
			<stop  offset="0" style="stop-color:#FFFFFF"/>
			<stop  offset="1" style="stop-color:#FFFFFF;stop-opacity:0"/>
		</linearGradient>
		<path style="fill:url(#SVGID_00000007404047064145245170000016083233522515305108_);" d="M242.622,51.478
			c0,0.571-0.463,1.033-1.033,1.033c-0.571,0-1.033-0.463-1.033-1.033c0-0.571,0.463-1.033,1.033-1.033
			C242.159,50.445,242.622,50.908,242.622,51.478z"/>
		
			<linearGradient id="SVGID_00000056393701658535207030000015245530399686715267_" gradientUnits="userSpaceOnUse" x1="55.2002" y1="71.1411" x2="54.9954" y2="74.6229">
			<stop  offset="0" style="stop-color:#FFFFFF"/>
			<stop  offset="1" style="stop-color:#FFFFFF;stop-opacity:0"/>
		</linearGradient>
		<path style="fill:url(#SVGID_00000056393701658535207030000015245530399686715267_);" d="M56.163,72.346
			c0,0.571-0.463,1.033-1.033,1.033c-0.571,0-1.034-0.463-1.034-1.033s0.463-1.033,1.034-1.033
			C55.7,71.313,56.163,71.775,56.163,72.346z"/>
		
			<linearGradient id="SVGID_00000161604096824810565020000016036088295754058667_" gradientUnits="userSpaceOnUse" x1="177.6955" y1="34.9484" x2="177.4907" y2="38.4301">
			<stop  offset="0" style="stop-color:#FFFFFF"/>
			<stop  offset="1" style="stop-color:#FFFFFF;stop-opacity:0"/>
		</linearGradient>
		<path style="fill:url(#SVGID_00000161604096824810565020000016036088295754058667_);" d="M178.658,36.153
			c0,0.571-0.463,1.033-1.033,1.033c-0.571,0-1.033-0.463-1.033-1.033c0-0.571,0.463-1.033,1.033-1.033
			C178.195,35.12,178.658,35.583,178.658,36.153z"/>
		
			<linearGradient id="SVGID_00000018954547423360348210000012815868918795732375_" gradientUnits="userSpaceOnUse" x1="309.3568" y1="86.5324" x2="309.1519" y2="90.0142">
			<stop  offset="0" style="stop-color:#FFFFFF"/>
			<stop  offset="1" style="stop-color:#FFFFFF;stop-opacity:0"/>
		</linearGradient>
		<path style="fill:url(#SVGID_00000018954547423360348210000012815868918795732375_);" d="M310.319,87.738
			c0,0.571-0.463,1.033-1.033,1.033c-0.571,0-1.034-0.463-1.034-1.033c0-0.571,0.463-1.033,1.034-1.033
			C309.857,86.704,310.319,87.167,310.319,87.738z"/>
		
			<linearGradient id="SVGID_00000077283310288252541860000011060078854968353168_" gradientUnits="userSpaceOnUse" x1="421.7511" y1="27.9412" x2="421.5463" y2="31.4229">
			<stop  offset="0" style="stop-color:#FFFFFF"/>
			<stop  offset="1" style="stop-color:#FFFFFF;stop-opacity:0"/>
		</linearGradient>
		<path style="fill:url(#SVGID_00000077283310288252541860000011060078854968353168_);" d="M422.713,29.146
			c0,0.571-0.463,1.033-1.033,1.033c-0.571,0-1.033-0.463-1.033-1.033c0-0.571,0.462-1.033,1.033-1.033
			C422.251,28.113,422.713,28.576,422.713,29.146z"/>
		
			<linearGradient id="SVGID_00000024692690338157600740000003907463003625076415_" gradientUnits="userSpaceOnUse" x1="461.9442" y1="14.9412" x2="461.7393" y2="18.4229">
			<stop  offset="0" style="stop-color:#FFFFFF"/>
			<stop  offset="1" style="stop-color:#FFFFFF;stop-opacity:0"/>
		</linearGradient>
		<path style="fill:url(#SVGID_00000024692690338157600740000003907463003625076415_);" d="M462.907,16.146
			c0,0.571-0.463,1.033-1.033,1.033s-1.034-0.463-1.034-1.033c0-0.571,0.463-1.033,1.034-1.033S462.907,15.576,462.907,16.146z"/>
		
			<linearGradient id="SVGID_00000108992548821390618550000000135548073536858278_" gradientUnits="userSpaceOnUse" x1="482.7838" y1="68.1608" x2="482.5789" y2="71.6425">
			<stop  offset="0" style="stop-color:#FFFFFF"/>
			<stop  offset="1" style="stop-color:#FFFFFF;stop-opacity:0"/>
		</linearGradient>
		<path style="fill:url(#SVGID_00000108992548821390618550000000135548073536858278_);" d="M483.746,69.366
			c0,0.571-0.463,1.033-1.033,1.033c-0.571,0-1.033-0.463-1.033-1.033c0-0.571,0.463-1.033,1.033-1.033
			C483.284,68.332,483.746,68.795,483.746,69.366z"/>
		
			<linearGradient id="SVGID_00000063632324274686655300000015862697601467068299_" gradientUnits="userSpaceOnUse" x1="155.0301" y1="78.5783" x2="154.8253" y2="82.0601">
			<stop  offset="0" style="stop-color:#FFFFFF"/>
			<stop  offset="1" style="stop-color:#FFFFFF;stop-opacity:0"/>
		</linearGradient>
		<path style="fill:url(#SVGID_00000063632324274686655300000015862697601467068299_);" d="M155.992,79.783
			c0,0.571-0.462,1.034-1.033,1.034c-0.571,0-1.033-0.463-1.033-1.034c0-0.571,0.463-1.033,1.033-1.033
			C155.53,78.75,155.992,79.213,155.992,79.783z"/>
		
			<linearGradient id="SVGID_00000168798258255283599250000006223930740675255713_" gradientUnits="userSpaceOnUse" x1="294.0857" y1="138.9245" x2="293.8809" y2="142.4063">
			<stop  offset="0" style="stop-color:#FFFFFF"/>
			<stop  offset="1" style="stop-color:#FFFFFF;stop-opacity:0"/>
		</linearGradient>
		<path style="fill:url(#SVGID_00000168798258255283599250000006223930740675255713_);" d="M295.048,140.13
			c0,0.571-0.463,1.033-1.033,1.033c-0.571,0-1.033-0.463-1.033-1.033s0.463-1.033,1.033-1.033
			C294.585,139.096,295.048,139.559,295.048,140.13z"/>
		
			<linearGradient id="SVGID_00000168089130482030052980000016801033156762286485_" gradientUnits="userSpaceOnUse" x1="348.5375" y1="203.9838" x2="348.3327" y2="207.4655">
			<stop  offset="0" style="stop-color:#FFFFFF"/>
			<stop  offset="1" style="stop-color:#FFFFFF;stop-opacity:0"/>
		</linearGradient>
		<path style="fill:url(#SVGID_00000168089130482030052980000016801033156762286485_);" d="M349.5,205.189
			c0,0.571-0.463,1.033-1.033,1.033c-0.571,0-1.033-0.463-1.033-1.033c0-0.571,0.463-1.033,1.033-1.033
			C349.037,204.156,349.5,204.618,349.5,205.189z"/>
		
			<linearGradient id="SVGID_00000116204594436816646820000012575002843021588373_" gradientUnits="userSpaceOnUse" x1="213.1984" y1="179.7168" x2="212.9936" y2="183.1983">
			<stop  offset="0" style="stop-color:#FFFFFF"/>
			<stop  offset="1" style="stop-color:#FFFFFF;stop-opacity:0"/>
		</linearGradient>
		<path style="fill:url(#SVGID_00000116204594436816646820000012575002843021588373_);" d="M214.161,180.922
			c0,0.571-0.463,1.033-1.033,1.033c-0.571,0-1.033-0.462-1.033-1.033c0-0.571,0.463-1.033,1.033-1.033
			C213.698,179.889,214.161,180.351,214.161,180.922z"/>
		
			<linearGradient id="SVGID_00000087401751052292702520000004303879730857387928_" gradientUnits="userSpaceOnUse" x1="470.2171" y1="303.3311" x2="470.0123" y2="306.8129">
			<stop  offset="0" style="stop-color:#FFFFFF"/>
			<stop  offset="1" style="stop-color:#FFFFFF;stop-opacity:0"/>
		</linearGradient>
		<path style="fill:url(#SVGID_00000087401751052292702520000004303879730857387928_);" d="M471.18,304.536
			c0,0.571-0.463,1.033-1.033,1.033c-0.571,0-1.033-0.463-1.033-1.033c0-0.571,0.463-1.033,1.033-1.033
			C470.717,303.503,471.18,303.966,471.18,304.536z"/>
		
			<linearGradient id="SVGID_00000050663795729268446750000004947835697394172859_" gradientUnits="userSpaceOnUse" x1="336.9003" y1="330.045" x2="336.6955" y2="333.5267">
			<stop  offset="0" style="stop-color:#FFFFFF"/>
			<stop  offset="1" style="stop-color:#FFFFFF;stop-opacity:0"/>
		</linearGradient>
		<path style="fill:url(#SVGID_00000050663795729268446750000004947835697394172859_);" d="M337.863,331.25
			c0,0.571-0.463,1.033-1.033,1.033c-0.571,0-1.033-0.463-1.033-1.033c0-0.571,0.463-1.033,1.033-1.033
			C337.4,330.217,337.863,330.679,337.863,331.25z"/>
		
			<linearGradient id="SVGID_00000046330869879555920960000001061318446962719889_" gradientUnits="userSpaceOnUse" x1="439.9716" y1="421.5449" x2="439.7668" y2="425.0267">
			<stop  offset="0" style="stop-color:#FFFFFF"/>
			<stop  offset="1" style="stop-color:#FFFFFF;stop-opacity:0"/>
		</linearGradient>
		<path style="fill:url(#SVGID_00000046330869879555920960000001061318446962719889_);" d="M440.934,422.75
			c0,0.571-0.463,1.033-1.033,1.033c-0.571,0-1.033-0.463-1.033-1.033c0-0.57,0.463-1.033,1.033-1.033
			C440.471,421.717,440.934,422.179,440.934,422.75z"/>
		
			<linearGradient id="SVGID_00000107550668926823650150000004257394033572775581_" gradientUnits="userSpaceOnUse" x1="114.005" y1="451.045" x2="113.8002" y2="454.5267">
			<stop  offset="0" style="stop-color:#FFFFFF"/>
			<stop  offset="1" style="stop-color:#FFFFFF;stop-opacity:0"/>
		</linearGradient>
		<path style="fill:url(#SVGID_00000107550668926823650150000004257394033572775581_);" d="M114.967,452.25
			c0,0.571-0.463,1.033-1.033,1.033c-0.571,0-1.033-0.463-1.033-1.033c0-0.571,0.463-1.033,1.033-1.033
			C114.505,451.217,114.967,451.679,114.967,452.25z"/>
		
			<linearGradient id="SVGID_00000065061998060445811090000002263206784731508645_" gradientUnits="userSpaceOnUse" x1="263.9671" y1="294.3311" x2="263.7623" y2="297.8129">
			<stop  offset="0" style="stop-color:#FFFFFF"/>
			<stop  offset="1" style="stop-color:#FFFFFF;stop-opacity:0"/>
		</linearGradient>
		<path style="fill:url(#SVGID_00000065061998060445811090000002263206784731508645_);" d="M264.93,295.536
			c0,0.571-0.463,1.033-1.033,1.033c-0.571,0-1.034-0.463-1.034-1.033c0-0.571,0.463-1.033,1.034-1.033
			C264.467,294.503,264.93,294.966,264.93,295.536z"/>
		
			<linearGradient id="SVGID_00000049218716133431993020000005273154736661347219_" gradientUnits="userSpaceOnUse" x1="187.4036" y1="443.6563" x2="187.1988" y2="447.1382">
			<stop  offset="0" style="stop-color:#FFFFFF"/>
			<stop  offset="1" style="stop-color:#FFFFFF;stop-opacity:0"/>
		</linearGradient>
		<path style="fill:url(#SVGID_00000049218716133431993020000005273154736661347219_);" d="M188.366,444.861
			c0,0.571-0.463,1.033-1.033,1.033c-0.571,0-1.033-0.463-1.033-1.033c0-0.571,0.463-1.033,1.033-1.033
			C187.903,443.828,188.366,444.291,188.366,444.861z"/>
		
			<linearGradient id="SVGID_00000073688097839073018030000015062237896702305152_" gradientUnits="userSpaceOnUse" x1="45.1854" y1="426.8615" x2="44.9806" y2="430.3434">
			<stop  offset="0" style="stop-color:#FFFFFF"/>
			<stop  offset="1" style="stop-color:#FFFFFF;stop-opacity:0"/>
		</linearGradient>
		<path style="fill:url(#SVGID_00000073688097839073018030000015062237896702305152_);" d="M46.148,428.066
			c0,0.571-0.463,1.034-1.033,1.034c-0.571,0-1.033-0.463-1.033-1.034c0-0.571,0.463-1.033,1.033-1.033
			C45.685,427.033,46.148,427.496,46.148,428.066z"/>
		
			<linearGradient id="SVGID_00000114045267490854145800000001693254395380278190_" gradientUnits="userSpaceOnUse" x1="290.2643" y1="443.8776" x2="290.0834" y2="446.9529">
			<stop  offset="0" style="stop-color:#FFFFFF"/>
			<stop  offset="1" style="stop-color:#FFFFFF;stop-opacity:0"/>
		</linearGradient>
		<path style="fill:url(#SVGID_00000114045267490854145800000001693254395380278190_);" d="M291.235,444.942
			c0,0.504-0.463,0.912-1.033,0.912c-0.571,0-1.033-0.408-1.033-0.912c0-0.504,0.463-0.912,1.033-0.912
			C290.772,444.03,291.235,444.438,291.235,444.942z"/>
		
			<linearGradient id="SVGID_00000001632382907081925340000017809738533342867875_" gradientUnits="userSpaceOnUse" x1="276.5328" y1="385.5885" x2="276.328" y2="389.07">
			<stop  offset="0" style="stop-color:#FFFFFF"/>
			<stop  offset="1" style="stop-color:#FFFFFF;stop-opacity:0"/>
		</linearGradient>
		<path style="fill:url(#SVGID_00000001632382907081925340000017809738533342867875_);" d="M277.495,386.793
			c0,0.571-0.463,1.033-1.033,1.033c-0.571,0-1.033-0.463-1.033-1.033c0-0.571,0.463-1.033,1.033-1.033
			C277.033,385.76,277.495,386.223,277.495,386.793z"/>
		
			<linearGradient id="SVGID_00000084503501321794931870000000064426748483520652_" gradientUnits="userSpaceOnUse" x1="195.4889" y1="365.3149" x2="195.2841" y2="368.7968">
			<stop  offset="0" style="stop-color:#FFFFFF"/>
			<stop  offset="1" style="stop-color:#FFFFFF;stop-opacity:0"/>
		</linearGradient>
		<path style="fill:url(#SVGID_00000084503501321794931870000000064426748483520652_);" d="M196.451,366.52
			c0,0.571-0.463,1.033-1.033,1.033c-0.571,0-1.033-0.463-1.033-1.033c0-0.571,0.463-1.033,1.033-1.033
			C195.989,365.487,196.451,365.949,196.451,366.52z"/>
		
			<linearGradient id="SVGID_00000106133808831105717170000015742840224698146693_" gradientUnits="userSpaceOnUse" x1="327.3935" y1="28.0379" x2="327.1887" y2="31.5197">
			<stop  offset="0" style="stop-color:#FFFFFF"/>
			<stop  offset="1" style="stop-color:#FFFFFF;stop-opacity:0"/>
		</linearGradient>
		<path style="fill:url(#SVGID_00000106133808831105717170000015742840224698146693_);" d="M328.356,29.243
			c0,0.571-0.463,1.033-1.033,1.033c-0.571,0-1.033-0.463-1.033-1.033c0-0.571,0.463-1.033,1.033-1.033
			C327.893,28.21,328.356,28.672,328.356,29.243z"/>
		
			<linearGradient id="SVGID_00000132079215898261338660000010119350229018395546_" gradientUnits="userSpaceOnUse" x1="54.1192" y1="17.2617" x2="53.9144" y2="20.7436">
			<stop  offset="0" style="stop-color:#FFFFFF"/>
			<stop  offset="1" style="stop-color:#FFFFFF;stop-opacity:0"/>
		</linearGradient>
		<path style="fill:url(#SVGID_00000132079215898261338660000010119350229018395546_);" d="M55.082,18.467
			c0,0.571-0.463,1.033-1.034,1.033c-0.571,0-1.033-0.463-1.033-1.033c0-0.571,0.463-1.033,1.033-1.033
			C54.619,17.433,55.082,17.896,55.082,18.467z"/>
		
			<linearGradient id="SVGID_00000000202913453817568350000017233749839734418585_" gradientUnits="userSpaceOnUse" x1="109.2945" y1="47.028" x2="108.5286" y2="60.0489">
			<stop  offset="0" style="stop-color:#FFFFFF"/>
			<stop  offset="1" style="stop-color:#FFFFFF;stop-opacity:0"/>
		</linearGradient>
		<path style="fill:url(#SVGID_00000000202913453817568350000017233749839734418585_);" d="M112.901,51.535
			c-3.215,0.363-3.509,0.657-3.871,3.871c-0.363-3.215-0.657-3.509-3.871-3.871c3.215-0.363,3.509-0.657,3.871-3.871
			C109.392,50.878,109.686,51.172,112.901,51.535z"/>
		<path style="fill:#F6DB3E;" d="M249.103,133.065c-7.098,0.8-7.747,1.449-8.548,8.548c-0.801-7.098-1.45-7.747-8.548-8.548
			c7.099-0.801,7.748-1.45,8.548-8.548C241.356,131.616,242.005,132.264,249.103,133.065z"/>
		<path style="fill:#F6DB3E;" d="M442.176,65.733c-7.098,0.8-7.747,1.45-8.548,8.548c-0.801-7.098-1.45-7.747-8.548-8.548
			c7.099-0.801,7.747-1.45,8.548-8.548C434.429,64.283,435.078,64.932,442.176,65.733z"/>
		<path style="fill:#F6DB3E;" d="M384.938,347.177c-7.098,0.8-7.747,1.45-8.548,8.548c-0.801-7.098-1.45-7.747-8.548-8.548
			c7.099-0.801,7.747-1.45,8.548-8.548C377.191,345.727,377.84,346.376,384.938,347.177z"/>
		
			<linearGradient id="SVGID_00000076581339141705354340000000399634588583872425_" gradientUnits="userSpaceOnUse" x1="403.2676" y1="413.9934" x2="402.5017" y2="427.0143">
			<stop  offset="0" style="stop-color:#FFFFFF"/>
			<stop  offset="1" style="stop-color:#FFFFFF;stop-opacity:0"/>
		</linearGradient>
		<path style="fill:url(#SVGID_00000076581339141705354340000000399634588583872425_);" d="M406.874,418.5
			c-3.215,0.363-3.509,0.657-3.871,3.871c-0.363-3.215-0.657-3.509-3.871-3.871c3.215-0.363,3.509-0.657,3.871-3.871
			C403.365,417.843,403.659,418.137,406.874,418.5z"/>
		
			<linearGradient id="SVGID_00000047055962084172686280000007063198434256494761_" gradientUnits="userSpaceOnUse" x1="274.4689" y1="20.5309" x2="273.703" y2="33.5518">
			<stop  offset="0" style="stop-color:#FFFFFF"/>
			<stop  offset="1" style="stop-color:#FFFFFF;stop-opacity:0"/>
		</linearGradient>
		<path style="fill:url(#SVGID_00000047055962084172686280000007063198434256494761_);" d="M278.075,25.038
			c-3.215,0.362-3.509,0.656-3.871,3.871c-0.363-3.215-0.657-3.509-3.871-3.871c3.215-0.363,3.509-0.657,3.871-3.871
			C274.566,24.381,274.86,24.675,278.075,25.038z"/>
		
			<linearGradient id="SVGID_00000083810237055953773580000006840523521878527931_" gradientUnits="userSpaceOnUse" x1="390.5667" y1="57.355" x2="389.8008" y2="70.3759">
			<stop  offset="0" style="stop-color:#FFFFFF"/>
			<stop  offset="1" style="stop-color:#FFFFFF;stop-opacity:0"/>
		</linearGradient>
		<path style="fill:url(#SVGID_00000083810237055953773580000006840523521878527931_);" d="M394.173,61.862
			c-3.215,0.362-3.509,0.657-3.871,3.871c-0.363-3.215-0.657-3.509-3.871-3.871c3.215-0.363,3.509-0.657,3.871-3.871
			C390.664,61.205,390.958,61.499,394.173,61.862z"/>
		
			<linearGradient id="SVGID_00000000940131916144603300000007695605501809638299_" gradientUnits="userSpaceOnUse" x1="302.8098" y1="183.4744" x2="302.0439" y2="196.4953">
			<stop  offset="0" style="stop-color:#FFFFFF"/>
			<stop  offset="1" style="stop-color:#FFFFFF;stop-opacity:0"/>
		</linearGradient>
		<path style="fill:url(#SVGID_00000000940131916144603300000007695605501809638299_);" d="M306.416,187.981
			c-3.215,0.363-3.509,0.656-3.871,3.871c-0.363-3.215-0.657-3.509-3.871-3.871c3.215-0.363,3.509-0.657,3.871-3.871
			C302.907,187.324,303.201,187.618,306.416,187.981z"/>
		
			<linearGradient id="SVGID_00000166641552366011735390000016318612109732529795_" gradientUnits="userSpaceOnUse" x1="251.0298" y1="342.6701" x2="250.2639" y2="355.691">
			<stop  offset="0" style="stop-color:#FFFFFF"/>
			<stop  offset="1" style="stop-color:#FFFFFF;stop-opacity:0"/>
		</linearGradient>
		<path style="fill:url(#SVGID_00000166641552366011735390000016318612109732529795_);" d="M254.636,347.177
			c-3.215,0.363-3.509,0.657-3.871,3.871c-0.363-3.215-0.657-3.509-3.871-3.871c3.215-0.363,3.509-0.657,3.871-3.871
			C251.127,346.52,251.421,346.814,254.636,347.177z"/>
		
			<linearGradient id="SVGID_00000113348803303461131640000001349251392031846318_" gradientUnits="userSpaceOnUse" x1="166.0882" y1="307.651" x2="165.3223" y2="320.6718">
			<stop  offset="0" style="stop-color:#FFFFFF"/>
			<stop  offset="1" style="stop-color:#FFFFFF;stop-opacity:0"/>
		</linearGradient>
		<path style="fill:url(#SVGID_00000113348803303461131640000001349251392031846318_);" d="M169.694,312.158
			c-3.215,0.363-3.509,0.656-3.871,3.871c-0.363-3.215-0.656-3.509-3.871-3.871c3.215-0.363,3.509-0.657,3.871-3.871
			C166.186,311.501,166.48,311.795,169.694,312.158z"/>
		
			<linearGradient id="SVGID_00000096766775622203977180000002734372821503376286_" gradientUnits="userSpaceOnUse" x1="447.5898" y1="110.373" x2="446.8238" y2="123.3939">
			<stop  offset="0" style="stop-color:#FFFFFF"/>
			<stop  offset="1" style="stop-color:#FFFFFF;stop-opacity:0"/>
		</linearGradient>
		<path style="fill:url(#SVGID_00000096766775622203977180000002734372821503376286_);" d="M451.196,114.88
			c-3.215,0.363-3.509,0.657-3.871,3.871c-0.363-3.215-0.657-3.509-3.871-3.871c3.215-0.363,3.509-0.657,3.871-3.871
			C447.687,114.223,447.981,114.517,451.196,114.88z"/>
	</g>
	<g style="opacity:0.5;">
		<g>
			<path style="fill:#076373;" d="M450.807,50.305C443.5,33.022,435.302,16.243,426.24,0h-1.435
				c9.175,16.392,17.467,33.335,24.85,50.792C476.427,114.085,490,181.15,490,250.125s-13.573,136.04-40.343,199.332
				c-7.345,17.368-15.59,34.228-24.71,50.543h1.433c9.005-16.165,17.155-32.86,24.427-50.055
				c26.835-63.448,40.443-130.675,40.443-199.82C491.25,180.982,477.642,113.753,450.807,50.305z"/>
		</g>
		<g>
			<path style="fill:#076373;" d="M413.047,66.275C403.275,43.175,391.783,21.05,378.63,0h-1.475
				c13.292,21.195,24.892,43.482,34.74,66.762C436.515,124.975,449,186.667,449,250.125c0,63.46-12.483,125.15-37.105,183.36
				c-9.81,23.19-21.358,45.395-34.585,66.515h1.475c13.087-20.978,24.53-43.017,34.262-66.027
				c24.685-58.365,37.203-120.22,37.203-183.848S437.732,124.643,413.047,66.275z"/>
		</g>
		<g>
			<path style="fill:#076373;" d="M375.285,82.247C362.935,53.048,347.567,25.552,329.34,0h-1.538
				c18.402,25.685,33.9,53.345,46.333,82.735C396.605,135.865,408,192.182,408,250.125s-11.395,114.26-33.865,167.39
				c-12.393,29.295-27.83,56.87-46.153,82.485h1.535c18.15-25.483,33.458-52.892,45.768-82
				c22.537-53.283,33.965-109.765,33.965-167.875S397.822,135.533,375.285,82.247z"/>
		</g>
		<g>
			<path style="fill:#076373;" d="M337.525,98.22C322.41,62.485,302.297,29.567,277.542,0h-1.63
				c24.983,29.68,45.255,62.76,60.46,98.707C356.695,146.755,367,197.7,367,250.125s-10.305,103.37-30.628,151.418
				c-15.163,35.845-35.365,68.842-60.25,98.457h1.63c24.658-29.503,44.7-62.335,59.772-97.97
				c20.387-48.202,30.725-99.31,30.725-151.905C368.25,197.533,357.912,146.423,337.525,98.22z"/>
		</g>
		<g>
			<path style="fill:#076373;" d="M299.762,114.192c-17.59-41.587-42.745-78.912-74.77-110.938C223.9,2.162,222.8,1.077,221.695,0
				H219.9c1.415,1.367,2.817,2.747,4.21,4.14c31.907,31.91,56.975,69.1,74.502,110.537C316.785,157.645,326,203.217,326,250.125
				s-9.215,92.48-27.388,135.445c-17.527,41.44-42.595,78.63-74.502,110.54c-1.308,1.308-2.625,2.605-3.953,3.89h1.795
				c1.02-0.997,2.033-1.997,3.043-3.008c32.022-32.022,57.177-69.348,74.767-110.935c18.24-43.12,27.488-88.855,27.488-135.932
				S318.003,157.313,299.762,114.192z"/>
		</g>
		<g>
			<path style="fill:#076373;" d="M262.003,130.163c-15.523-36.7-37.73-69.643-66-97.915C184.175,20.423,171.532,9.658,158.137,0
				h-2.145c13.868,9.877,26.933,20.94,39.125,33.132c28.158,28.155,50.273,60.965,65.733,97.517
				C276.875,168.538,285,208.732,285,250.125s-8.125,81.59-24.15,119.475c-15.46,36.552-37.575,69.362-65.733,97.517
				c-12.09,12.09-25.037,23.07-38.775,32.883h2.14c13.268-9.59,25.795-20.272,37.52-31.997c28.27-28.27,50.475-61.215,66-97.915
				c16.09-38.042,24.247-78.402,24.247-119.962S278.092,168.205,262.003,130.163z"/>
		</g>
		<g>
			<path style="fill:#076373;" d="M224.24,146.135c-13.455-31.812-32.71-60.377-57.23-84.895
				c-24.518-24.52-53.083-43.775-84.895-57.23C78.787,2.602,75.44,1.265,72.072,0h-3.607c4.423,1.597,8.81,3.32,13.162,5.16
				c31.665,13.392,60.095,32.557,84.5,56.963s43.57,52.835,56.963,84.5C236.965,179.428,244,214.25,244,250.125
				s-7.035,70.698-20.91,103.503c-13.393,31.665-32.558,60.095-56.963,84.5c-24.405,24.402-52.835,43.57-84.5,56.962
				c-4.125,1.745-8.282,3.383-12.47,4.91h3.583c3.142-1.193,6.267-2.445,9.375-3.76c31.815-13.455,60.377-32.71,84.895-57.23
				c24.52-24.518,43.775-53.08,57.23-84.895c13.942-32.96,21.01-67.947,21.01-103.99S238.182,179.095,224.24,146.135z"/>
		</g>
		<g>
			<path style="fill:#076373;" d="M186.48,162.107c-11.39-26.928-27.693-51.11-48.46-71.877
				c-20.768-20.768-44.95-37.07-71.878-48.46C44.975,32.818,22.807,27.215,0,25.038v1.267c113.772,11.033,203,107.203,203,223.82
				S113.772,462.913,0,473.945v1.267c22.807-2.177,44.975-7.78,66.142-16.732c26.928-11.39,51.11-27.695,71.878-48.46
				c20.767-20.767,37.07-44.95,48.46-71.878c11.79-27.877,17.77-57.49,17.77-88.017S198.27,189.985,186.48,162.107z"/>
		</g>
	</g>
	<g>
		<defs>
			<rect id="SVGID_00000169542716113171016930000008299159966456995758_" y="72.25" width="171.75" height="326"/>
		</defs>
		<clipPath id="SVGID_00000013907449526764937980000005321086708853006479_">
			<use xlink:href="#SVGID_00000169542716113171016930000008299159966456995758_"  style="overflow:visible;"/>
		</clipPath>
		<g style="clip-path:url(#SVGID_00000013907449526764937980000005321086708853006479_);">
			
				<radialGradient id="SVGID_00000110470952213858914200000004205619451681455783_" cx="-131.2375" cy="618.0226" r="199.1606" gradientTransform="matrix(0.8636 -0.5042 0.5042 0.8636 -206.0295 -350.0675)" gradientUnits="userSpaceOnUse">
				<stop  offset="0" style="stop-color:#F6DB3E"/>
				<stop  offset="0" style="stop-color:#FFF1A9;stop-opacity:0.9153"/>
				<stop  offset="0.1437" style="stop-color:#FEEE98;stop-opacity:0.7838"/>
				<stop  offset="0.7255" style="stop-color:#F8E057;stop-opacity:0.2513"/>
				<stop  offset="1" style="stop-color:#F6DB3E;stop-opacity:0"/>
			</radialGradient>
			<path style="opacity:0.8;fill:url(#SVGID_00000110470952213858914200000004205619451681455783_);" d="M-0.183,395.248
				c-8.13,0-16.312-0.643-24.316-1.912c-34.955-5.539-67.287-22.935-91.038-48.982c-7.399-8.113-13.976-17.064-19.545-26.602
				c-21.052-36.057-26.803-78.153-16.193-118.535c10.61-40.382,36.311-74.215,72.368-95.267
				c23.354-13.635,49.93-21.01,76.854-21.328c0.621-0.008,1.256-0.011,1.882-0.011c27.226,0,54.14,7.182,77.83,20.771
				c23.71,13.6,43.502,33.221,57.236,56.743c21.052,36.057,26.803,78.154,16.193,118.536c-10.61,40.382-36.311,74.215-72.368,95.267
				C54.83,387.875,27.545,395.248-0.183,395.248z"/>
			
				<radialGradient id="SVGID_00000159427999205179833710000009432227625153760902_" cx="-129.5719" cy="617.2609" r="171.7671" gradientTransform="matrix(0.8636 -0.5042 0.5042 0.8636 -206.0295 -350.0675)" gradientUnits="userSpaceOnUse">
				<stop  offset="0" style="stop-color:#F6DB3E"/>
				<stop  offset="0" style="stop-color:#FFF1A9;stop-opacity:0.9153"/>
				<stop  offset="0.1437" style="stop-color:#FEEE98;stop-opacity:0.7838"/>
				<stop  offset="0.7255" style="stop-color:#F8E057;stop-opacity:0.2513"/>
				<stop  offset="1" style="stop-color:#F6DB3E;stop-opacity:0"/>
			</radialGradient>
			<path style="fill:url(#SVGID_00000159427999205179833710000009432227625153760902_);" d="M67.88,355.359
				c-26.798,15.646-58.41,21.592-89.014,16.742c-30.155-4.779-58.04-19.778-78.516-42.234c-6.383-6.999-12.057-14.723-16.865-22.956
				c-18.156-31.097-23.116-67.404-13.966-102.232c9.151-34.828,31.317-64.007,62.414-82.164
				c20.144-11.762,43.059-18.123,66.267-18.396c48.446-0.587,93.712,25.027,118.128,66.844
				c18.156,31.097,23.116,67.404,13.966,102.232C121.143,308.023,98.977,337.203,67.88,355.359z"/>
			
				<radialGradient id="SVGID_00000114032482975067439190000008430411509593685376_" cx="-117.1982" cy="616.675" r="150.7011" gradientTransform="matrix(0.8636 -0.5042 0.5042 0.8636 -206.0295 -350.0675)" gradientUnits="userSpaceOnUse">
				<stop  offset="0" style="stop-color:#F6DB3E"/>
				<stop  offset="0" style="stop-color:#F6DB3E;stop-opacity:0.9153"/>
				<stop  offset="1" style="stop-color:#F6DB3E;stop-opacity:0"/>
			</radialGradient>
			<path style="fill:url(#SVGID_00000114032482975067439190000008430411509593685376_);" d="M59.543,341.081
				c-23.511,13.727-51.244,18.944-78.09,14.69c-26.463-4.194-50.928-17.349-68.887-37.044c-5.602-6.142-10.582-12.922-14.804-20.152
				c-15.93-27.284-20.281-59.137-12.253-89.694c8.029-30.556,27.476-56.157,54.759-72.087
				c17.677-10.321,37.776-15.902,58.125-16.142c42.513-0.515,82.233,21.958,103.655,58.648
				c15.93,27.284,20.281,59.137,12.253,89.694C106.274,299.55,86.827,325.151,59.543,341.081z"/>
			<path style="fill:#F6DB3E;" d="M89.64,186.546c28.935,49.559,12.217,113.19-37.342,142.125
				c-43.082,25.153-96.802,15.807-129.113-19.627c-4.856-5.325-9.23-11.238-13.012-17.715
				c-28.935-49.559-12.217-113.19,37.342-142.125c16.09-9.394,33.664-13.978,51.049-14.183
				C34.731,134.584,70.099,153.077,89.64,186.546z"/>
			<path style="fill:#FFC000;" d="M83.893,189.901c6.622,11.341,10.823,23.635,12.488,36.541c1.609,12.47,0.796,24.99-2.414,37.208
				c-3.211,12.221-8.657,23.521-16.188,33.589c-7.794,10.421-17.498,19.063-28.839,25.685c-9.864,5.759-20.51,9.705-31.638,11.727
				c-10.754,1.954-21.708,2.073-32.558,0.354c-1.209-0.192-2.411-0.405-3.609-0.643c-0.002,0.001-0.003-0.001-0.006,0
				c-9.463-1.863-18.551-5.097-27.067-9.638c-9.78-5.212-18.514-11.996-25.961-20.164c-4.609-5.053-8.706-10.633-12.183-16.587
				c-6.622-11.341-10.823-23.635-12.488-36.541c-1.609-12.47-0.796-24.99,2.414-37.208c3.209-12.22,8.657-23.521,16.188-33.589
				c7.794-10.421,17.498-19.063,28.837-25.683c6.837-3.992,14.114-7.123,21.644-9.339c8.478-2.495,17.278-3.832,26.13-3.937
				c16.909-0.204,33.67,4.019,48.471,12.214C62.344,162.325,75.063,174.778,83.893,189.901z"/>
			<path style="fill:#FFA600;" d="M83.893,189.901c6.622,11.341,10.823,23.635,12.488,36.541c1.609,12.47,0.796,24.99-2.414,37.208
				c-3.211,12.221-8.657,23.521-16.188,33.589c-7.794,10.421-17.498,19.063-28.839,25.685c-9.864,5.759-20.51,9.705-31.638,11.727
				c-10.754,1.954-21.708,2.073-32.558,0.354c-1.209-0.192-2.411-0.405-3.609-0.643C13.017,336.736,85.151,302.178,72.25,223
				c-12.75-78.25-99.737-77.387-99.737-77.387c8.478-2.495,17.278-3.832,26.13-3.937c16.909-0.204,33.67,4.019,48.471,12.214
				C62.344,162.325,75.063,174.778,83.893,189.901z"/>
		</g>
	</g>
	<g>
		<path style="fill:#FA8E00;" d="M178.847,237.126c-0.45,1.432-1.367,2.732-2.7,3.648c-1.575,1.08-3.435,1.425-5.175,1.11
			c-0.695-0.125-1.372-0.355-2.003-0.685c-0.485-0.252-0.945-0.567-1.367-0.94c-0.423-0.37-0.805-0.8-1.137-1.285
			c-0.963-1.4-1.342-3.027-1.193-4.598c0.057-0.592,0.19-1.178,0.393-1.738c0.48-1.315,1.36-2.495,2.6-3.347
			c0.342-0.235,0.702-0.438,1.07-0.605c0.12-0.055,0.243-0.105,0.368-0.152c1.68-0.65,3.522-0.607,5.142,0.053
			c1.215,0.497,2.303,1.342,3.1,2.505C179.207,232.929,179.467,235.156,178.847,237.126z"/>
		<path style="opacity:0.2;" d="M170.086,233.812c-0.11-0.013-0.225,0.02-0.314,0.1c-0.167,0.149-0.181,0.405-0.032,0.571
			c0.08,0.089,0.191,0.135,0.302,0.134c-0.165,0.063-0.36,0.022-0.485-0.118c-0.163-0.182-0.147-0.461,0.034-0.623
			C169.731,233.751,169.929,233.732,170.086,233.812z"/>
		<path style="opacity:0.2;" d="M173.775,234.296c-0.207-0.025-0.425,0.037-0.594,0.189c-0.315,0.282-0.342,0.764-0.06,1.079
			c0.151,0.169,0.361,0.255,0.57,0.253c-0.312,0.119-0.679,0.041-0.916-0.223c-0.307-0.343-0.278-0.871,0.065-1.177
			C173.104,234.181,173.478,234.144,173.775,234.296z"/>
		<path style="opacity:0.2;" d="M169.592,230.663c-0.207-0.025-0.425,0.037-0.594,0.189c-0.315,0.282-0.342,0.764-0.06,1.079
			c0.151,0.169,0.361,0.255,0.57,0.253c-0.312,0.119-0.679,0.041-0.916-0.223c-0.307-0.343-0.278-0.871,0.065-1.178
			C168.921,230.547,169.295,230.511,169.592,230.663z"/>
		<path style="opacity:0.2;" d="M171.365,236.365c-0.437-0.053-0.897,0.079-1.253,0.398c-0.664,0.595-0.72,1.613-0.126,2.277
			c0.319,0.356,0.761,0.538,1.202,0.534c-0.658,0.25-1.433,0.087-1.932-0.47c-0.647-0.723-0.586-1.837,0.137-2.484
			C169.949,236.121,170.739,236.044,171.365,236.365z"/>
		<path style="opacity:0.2;" d="M173.169,229.843c-0.146-0.018-0.3,0.026-0.419,0.133c-0.222,0.199-0.241,0.54-0.042,0.762
			c0.107,0.119,0.255,0.18,0.402,0.179c-0.22,0.084-0.48,0.029-0.646-0.157c-0.217-0.242-0.196-0.615,0.046-0.831
			C172.695,229.761,172.959,229.735,173.169,229.843z"/>
		<path style="opacity:0.2;" d="M177.973,231.09c2.177,3.171,1.372,7.505-1.798,9.682c-2.202,1.512-4.965,1.585-7.177,0.426
			c3.661,1.176,7.947-3.079,6.869-7.212c-1.359-5.21-6.505-5.301-6.505-5.301C172.378,227.318,176.032,228.264,177.973,231.09z"/>
		
			<linearGradient id="SVGID_00000183226071114586306910000004976458506692820911_" gradientUnits="userSpaceOnUse" x1="162.1646" y1="234.807" x2="168.7271" y2="234.6195">
			<stop  offset="0" style="stop-color:#FFFFFF"/>
			<stop  offset="1" style="stop-color:#FFFFFF;stop-opacity:0"/>
		</linearGradient>
		<path style="opacity:0.8;fill:url(#SVGID_00000183226071114586306910000004976458506692820911_);" d="M167.697,230.58
			c-0.985,1.057-3.208,4.08-0.933,7.996c0.221,0.381,0.722,0.488,1.079,0.231l0.173-0.124c0.314-0.226,0.403-0.655,0.203-0.986
			c-0.592-0.981-1.42-3.211,0.634-6.187c0.252-0.365,0.132-0.868-0.259-1.078l0,0C168.296,230.271,167.928,230.332,167.697,230.58z"
			/>
	</g>
	<g>
		<path style="fill:#A8BDCD;" d="M476.59,269.017c2.675,2.988,2.421,7.579-0.567,10.254c-2.076,1.858-4.923,2.302-7.365,1.399
			l-0.002,0c-1.073-0.396-2.069-1.054-2.886-1.966c-2.675-2.988-2.421-7.579,0.567-10.254c0.325-0.291,0.668-0.547,1.026-0.769
			C470.3,265.862,474.206,266.353,476.59,269.017z"/>
		<path style="opacity:0.2;" d="M476.59,269.017c2.675,2.988,2.421,7.579-0.567,10.254c-2.076,1.858-4.923,2.302-7.365,1.399
			c3.943,0.727,7.808-4.245,6.141-8.376c-2.102-5.207-7.436-4.614-7.436-4.614C470.3,265.862,474.206,266.353,476.59,269.017z"/>
		
			<linearGradient id="SVGID_00000034811344191071607930000000016184044579934344_" gradientUnits="userSpaceOnUse" x1="666.349" y1="646.3029" x2="669.6252" y2="649.3835" gradientTransform="matrix(0.7451 -0.667 0.667 0.7451 -464.5609 236.8561)">
			<stop  offset="0" style="stop-color:#FFFFFF"/>
			<stop  offset="1" style="stop-color:#FFFFFF;stop-opacity:0"/>
		</linearGradient>
		<path style="opacity:0.8;fill:url(#SVGID_00000034811344191071607930000000016184044579934344_);" d="M465.894,269.861
			c-0.877,1.224-2.773,4.648,0.103,8.395c0.28,0.364,0.812,0.409,1.147,0.095l0.162-0.152c0.294-0.276,0.329-0.731,0.079-1.047
			c-0.743-0.936-1.898-3.131-0.17-6.483c0.212-0.411,0.02-0.915-0.412-1.081l0,0C466.473,269.462,466.1,269.574,465.894,269.861z"/>
		<path style="opacity:0.2;" d="M469.049,272.909c-0.17-0.021-0.349,0.031-0.487,0.155c-0.258,0.231-0.28,0.627-0.049,0.885
			c0.124,0.138,0.296,0.209,0.467,0.207c-0.255,0.097-0.557,0.034-0.751-0.183c-0.252-0.281-0.228-0.714,0.053-0.965
			C468.499,272.815,468.805,272.785,469.049,272.909z"/>
		<path style="opacity:0.2;" d="M471.098,276.519c-0.321-0.039-0.659,0.058-0.92,0.292c-0.487,0.436-0.529,1.184-0.092,1.671
			c0.234,0.261,0.559,0.395,0.882,0.392c-0.483,0.184-1.052,0.064-1.418-0.345c-0.475-0.531-0.43-1.348,0.101-1.823
			C470.06,276.34,470.639,276.283,471.098,276.519z"/>
		<path style="opacity:0.2;" d="M471.619,269.623c-0.227-0.027-0.465,0.041-0.649,0.206c-0.344,0.308-0.373,0.836-0.065,1.18
			c0.165,0.184,0.394,0.279,0.623,0.276c-0.341,0.13-0.742,0.045-1.001-0.244c-0.335-0.375-0.303-0.952,0.071-1.287
			C470.886,269.496,471.295,269.456,471.619,269.623z"/>
	</g>
	<g>
		<path style="fill:#FD4A26;" d="M262.637,272.927l-0.004,0.001c-1.469-0.337-2.883-1.026-4.106-2.081
			c-0.166-0.143-0.326-0.291-0.479-0.442c-1.286-1.27-2.142-2.828-2.556-4.482c-0.725-2.915-0.074-6.126,2.04-8.574
			c0.374-0.437,0.78-0.83,1.21-1.18c0.776-0.633,1.63-1.124,2.531-1.476c1.044-0.411,2.146-0.632,3.255-0.661
			c2.298-0.062,4.624,0.7,6.502,2.319c2.075,1.788,3.193,4.274,3.31,6.809c0.002,0.002,0.002,0.002,0.002,0.004
			c0.018,0.392,0.011,0.783-0.02,1.175c-0.115,1.527-0.599,3.039-1.462,4.39c-0.246,0.388-0.523,0.761-0.832,1.12
			c-0.584,0.676-1.242,1.251-1.951,1.723C267.872,273.038,265.167,273.507,262.637,272.927z"/>
		<path style="fill:#E72E27;" d="M272.674,261.549c-1.422,0.166-2.305,0.282-2.738-0.872c-0.432-1.154,0.504-1.314,0.4-2.342
			c-0.104-1.028-1.803,0.084-1.862-0.892c-0.06-0.976-0.671-1.66-1.55-1.641c-0.867,0.019-3.179-0.179-2.397-1.77
			c2.298-0.062,4.624,0.7,6.502,2.319c2.075,1.788,3.193,4.274,3.31,6.809C274.196,262.601,273.762,261.422,272.674,261.549z"/>
		<path style="fill:#E72E27;" d="M269.384,265.318c0,0-0.315-0.836-0.909-0.695c-0.595,0.142-0.879,0.796-0.772,1.42
			C267.81,266.668,269.915,266.271,269.384,265.318z"/>
		<path style="fill:#E72E27;" d="M262.637,272.927l-0.004,0.001c-1.469-0.337-2.883-1.026-4.106-2.081
			c-0.166-0.143-0.326-0.291-0.479-0.442c0.256-0.172,0.542-0.354,0.842-0.543c1.13-0.708,2.647,1.173,3.526,0.732
			c0.879-0.441,0.837-2.514,1.751-2.627c0.916-0.113,1.357-0.335,2.303-0.057c0.946,0.277,0.068,1.786,1.62,1.437
			c1.55-0.349,2.312-1.285,2.549-0.294c0.133,0.559-0.226,1.665-0.564,2.52C267.872,273.038,265.167,273.507,262.637,272.927z"/>
		<path style="fill:#E72E27;" d="M255.492,265.923c-0.725-2.915-0.074-6.126,2.04-8.574c0.374-0.437,0.78-0.83,1.21-1.18
			c0.776-0.633,1.63-1.124,2.531-1.476c0.095,0.558,0.172,1.421,0.108,2.674c-0.133,2.609,1.87,1.75,2.493,2.84
			c0.622,1.091,0.788,1.785,0.836,2.694c0.05,0.911-1.317-0.473-2.276,0.495c-0.959,0.968-0.301,1.965-1.264,2.235
			c-0.961,0.271-3.149,0.272-3.207-0.606c-0.059-0.879,1.55-1.383,0.226-2.567c-1.324-1.184-0.294-1.515-0.108-2.145
			c0.186-0.63,0.935-1.802-0.116-1.984c-1.052-0.182-0.923,1.666-1.526,3.004c-0.603,1.339,0.497,1.338,0.225,2.576
			C256.519,264.568,256.003,265.386,255.492,265.923z"/>
		<path style="fill:#E72E27;" d="M267.415,259.798c0,0,0.006-1.455-0.704-1.518c-0.71-0.062-1.07,0.359-1.01,1.14
			c0.061,0.782,1.161,1.988,1.609,1.565C267.53,260.778,267.415,259.798,267.415,259.798z"/>
		<path style="fill:#E72E27;" d="M272.859,268.73c-0.553-0.047-1.048-0.288-1.188-0.755c-0.374-1.262,0.007-1.907,1.03-2.147
			c1.025-0.24,0.56-2.307,1.248-2.052c0.152,0.056,0.275,0.269,0.371,0.565C274.206,265.867,273.721,267.379,272.859,268.73z"/>
		<path style="opacity:0.2;" d="M271.029,256.351c4.003,3.453,4.449,9.495,0.997,13.498c-2.398,2.78-6.044,3.843-9.39,3.077
			c5.277,0.282,9.486-6.872,6.607-11.988c-3.629-6.449-10.501-4.77-10.501-4.77C262.274,253.294,267.461,253.274,271.029,256.351z"
			/>
		
			<linearGradient id="SVGID_00000026873809654634403770000017483649935902278809_" gradientUnits="userSpaceOnUse" x1="261.4808" y1="391.0029" x2="258.2259" y2="382.0762" gradientTransform="matrix(-0.0877 0.9961 -0.9961 -0.0877 662.2212 40.861)">
			<stop  offset="0" style="stop-color:#FFFFFF"/>
			<stop  offset="1" style="stop-color:#FFFFFF;stop-opacity:0"/>
		</linearGradient>
		<path style="opacity:0.8;fill:url(#SVGID_00000026873809654634403770000017483649935902278809_);" d="M257.193,259.267
			c-0.939,1.749-2.837,6.546,1.557,10.955c0.427,0.429,1.131,0.397,1.515-0.07l0.186-0.226c0.338-0.41,0.306-1.012-0.075-1.382
			c-1.129-1.097-3.011-3.771-1.321-8.444c0.207-0.573-0.129-1.2-0.722-1.343l0,0C257.881,258.648,257.413,258.858,257.193,259.267z"
			/>
	</g>
	<g>
		<path style="fill:#F1DEAF;" d="M219.477,267.457c-0.037,0.783-0.13,1.563-0.282,2.333c-0.108,0.563-0.248,1.117-0.42,1.667
			c-0.292,0.95-0.675,1.878-1.15,2.77c-0.645,1.215-1.455,2.36-2.428,3.405c-0.092,0.098-0.185,0.195-0.28,0.292
			c-0.26,0.268-0.53,0.525-0.813,0.778c-0.688,0.61-1.41,1.15-2.163,1.617c-1.08,0.675-2.217,1.207-3.39,1.6
			c-1.097,0.37-2.225,0.615-3.362,0.737c-1.465,0.158-2.945,0.115-4.395-0.13c-1.013-0.17-2.01-0.435-2.98-0.797h-0.005
			c-0.13-0.048-0.258-0.098-0.388-0.15c-0.767-0.31-1.517-0.682-2.237-1.117c-0.16-0.095-0.32-0.195-0.478-0.297
			c-1.06-0.685-2.05-1.508-2.947-2.465c-0.107-0.113-0.21-0.225-0.313-0.34c-0.607-0.685-1.145-1.405-1.612-2.155
			c-0.135-0.215-0.263-0.43-0.385-0.65c-0.215-0.38-0.41-0.765-0.59-1.158c-0.19-0.413-0.36-0.83-0.513-1.253
			c-0.307-0.852-0.54-1.725-0.695-2.605c-0.16-0.883-0.242-1.777-0.25-2.67c-0.012-1.145,0.098-2.288,0.327-3.41
			c0.17-0.837,0.41-1.663,0.715-2.467c0.362-0.957,0.82-1.885,1.372-2.77c0.33-0.533,0.695-1.05,1.095-1.548
			c0.058-0.07,0.115-0.14,0.173-0.21c0.515-0.62,1.085-1.21,1.705-1.762c0.382-0.34,0.78-0.66,1.185-0.958
			c0.357-0.26,0.72-0.505,1.092-0.732c0.573-0.352,1.16-0.665,1.763-0.935c0.065-0.03,0.127-0.057,0.192-0.083h0.003
			c0.825-0.362,1.67-0.652,2.527-0.865c1.08-0.268,2.178-0.423,3.28-0.465c0.388-0.015,0.778-0.015,1.165-0.002
			c1.085,0.037,2.167,0.185,3.225,0.442c1.16,0.278,2.293,0.688,3.375,1.225c0.12,0.06,0.24,0.122,0.36,0.182
			c0.795,0.423,1.563,0.915,2.288,1.475c0.59,0.455,1.152,0.952,1.685,1.5c0.175,0.18,0.348,0.367,0.518,0.558
			c0.008,0.01,0.015,0.017,0.023,0.027c0.38,0.43,0.735,0.875,1.06,1.335c0.695,0.975,1.265,2.005,1.715,3.073
			c0.35,0.835,0.628,1.695,0.83,2.565C219.415,264.495,219.547,265.983,219.477,267.457z"/>
		<path style="fill:#E4AD5E;" d="M219.075,263.045c-1.548,0.247-4.342,0.647-9.075,1.205c-4.638,0.545-9.75,1-15.5,0.5
			c-3.213-0.28-5.488-0.872-6.77-1.29c0.17-0.837,0.41-1.663,0.715-2.467c2.295,0.295,6.7,0.758,11.805,0.758
			c7.557,0,13.702-1.41,17.995-1.27C218.595,261.315,218.872,262.175,219.075,263.045z"/>
		<path style="fill:#E4AD5E;" d="M216.53,257.408c-1.595,0.36-3.67,0.785-6.28,1.092c-4.638,0.545-9.75,0.75-15.5,0.25
			c-1.865-0.163-3.575-0.332-4.933-0.527c0.33-0.533,0.695-1.05,1.095-1.548c0.058-0.07,0.115-0.14,0.173-0.21
			c2.6,0.522,6.387,0.94,9.915,0.785c8.182-0.355,11.28-1.298,13.93-1.762c0.175,0.18,0.348,0.367,0.518,0.558
			c0.008,0.01,0.015,0.017,0.023,0.027C215.85,256.503,216.205,256.948,216.53,257.408z"/>
		<path style="fill:#E4AD5E;" d="M213.245,253.988c-0.068,0.01-0.137,0.018-0.205,0.025c-5.735,0.655-10.85,0.59-15.5,0.17
			c-1.322-0.12-2.508-0.272-3.565-0.438c0.357-0.26,0.72-0.505,1.092-0.732c0.573-0.352,1.16-0.665,1.763-0.935
			c0.065-0.03,0.127-0.057,0.192-0.083h0.003c2.21,0.315,5.19,0.613,9.727,0.688c1.393,0.023,2.825-0.042,4.205-0.17
			C211.752,252.935,212.52,253.428,213.245,253.988z"/>
		<path style="fill:#E4AD5E;" d="M218.775,271.457c-0.292,0.95-0.675,1.878-1.15,2.77c-1.835,0.33-3.78,0.628-5.375,0.772
			c-6.898,0.63-11.415,0.582-17,0.25c-2.24-0.133-4.17-0.405-5.8-0.695c-0.215-0.38-0.41-0.765-0.59-1.158
			c-0.19-0.413-0.36-0.83-0.513-1.253c3.513,0.24,6.898,1.152,17.888,1.21C210.217,273.375,215.19,272.367,218.775,271.457z"/>
		<path style="fill:#E4AD5E;" d="M215.197,277.633c-0.092,0.098-0.185,0.195-0.28,0.292c-0.26,0.268-0.53,0.525-0.813,0.778
			c-0.688,0.61-1.41,1.15-2.163,1.617c-6.45,0.555-10.827,0.5-16.192,0.18c-0.19-0.013-0.38-0.022-0.565-0.038
			c-0.16-0.095-0.32-0.195-0.478-0.297c-1.06-0.685-2.05-1.508-2.947-2.465c2.93,0.36,6.9,0.862,14.975,0.905
			C209.352,278.617,212.397,278.188,215.197,277.633z"/>
		<path style="fill:#E4AD5E;" d="M219.477,267.457c-0.037,0.783-0.13,1.563-0.282,2.333c-1.228,0.158-2.578,0.313-3.998,0.465
			c-7.452,0.802-14.1,0.735-20.143,0.242c-2.985-0.245-5.438-0.612-7.402-0.957c-0.16-0.883-0.242-1.777-0.25-2.67
			c3.902,0.315,7.452,1.635,19.628,1.798C211.435,268.725,216.137,268.142,219.477,267.457z"/>
		<path style="opacity:0.2;" d="M215.447,256.046c5.886,6.628,5.285,16.77-1.343,22.656c-4.604,4.088-10.9,5.045-16.29,3.028
			c8.708,1.642,17.293-9.313,13.645-18.457c-4.599-11.526-16.393-10.261-16.393-10.261
			C201.574,249.018,210.2,250.138,215.447,256.046z"/>
		
			<linearGradient id="SVGID_00000008122455846763110550000008223508369201587117_" gradientUnits="userSpaceOnUse" x1="179.4518" y1="267.0024" x2="193.7019" y2="266.4191">
			<stop  offset="0" style="stop-color:#FFFFFF"/>
			<stop  offset="1" style="stop-color:#FFFFFF;stop-opacity:0"/>
		</linearGradient>
		<path style="opacity:0.8;fill:url(#SVGID_00000008122455846763110550000008223508369201587117_);" d="M191.823,257.176
			c-1.95,2.698-6.17,10.249,0.153,18.554c0.615,0.807,1.791,0.91,2.534,0.22l0.359-0.334c0.653-0.607,0.734-1.613,0.183-2.314
			c-1.633-2.074-4.166-6.936-0.319-14.329c0.472-0.907,0.052-2.023-0.901-2.392l0,0C193.105,256.299,192.28,256.544,191.823,257.176
			z"/>
	</g>
	<g>
		<g>
			<path style="fill:#6763D9;" d="M470.958,218.068c-0.083,2.273-0.66,4.533-1.725,6.605c-0.233,0.452-0.49,0.895-0.77,1.327
				c-0.383,0.592-0.81,1.167-1.28,1.715c-0.235,0.277-0.485,0.55-0.745,0.815c-0.105,0.105-0.212,0.21-0.317,0.313
				c-0.505,0.482-1.03,0.925-1.578,1.327c-1.045,0.768-2.163,1.39-3.328,1.867c-0.3,0.122-0.6,0.238-0.902,0.338
				c-0.765,0.262-1.55,0.462-2.34,0.602c-0.765,0.133-1.54,0.212-2.313,0.232c-0.667,0.018-1.332-0.007-1.997-0.075
				c-0.44-0.042-0.875-0.105-1.313-0.188c-0.557-0.103-1.11-0.235-1.655-0.4h-0.005c-0.13-0.038-0.26-0.08-0.39-0.123
				c-0.682-0.222-1.355-0.497-2.01-0.82c-0.217-0.107-0.432-0.22-0.645-0.338c-0.032-0.015-0.062-0.032-0.092-0.05
				c-0.73-0.408-1.435-0.88-2.105-1.41c-0.11-0.088-0.22-0.178-0.327-0.268c-0.323-0.273-0.633-0.555-0.938-0.855
				c-0.575-0.568-1.098-1.168-1.565-1.795c-0.053-0.07-0.103-0.138-0.155-0.21c-0.07-0.098-0.14-0.197-0.208-0.298
				c-0.315-0.458-0.602-0.928-0.862-1.408c-0.348-0.643-0.65-1.305-0.9-1.98c-0.703-1.872-1.033-3.855-0.993-5.833
				c0.04-2.162,0.525-4.318,1.46-6.32c0.145-0.318,0.305-0.633,0.475-0.943c0.267-0.485,0.563-0.96,0.882-1.42
				c0.125-0.178,0.253-0.355,0.385-0.527c0.402-0.53,0.845-1.038,1.325-1.525c0.205-0.208,0.415-0.41,0.63-0.605
				c0.475-0.432,0.973-0.83,1.487-1.197c0.405-0.288,0.82-0.553,1.245-0.798c0.14-0.077,0.28-0.155,0.42-0.233
				c0.84-0.447,1.71-0.815,2.602-1.1c0.41-0.133,0.825-0.247,1.242-0.345c0.64-0.148,1.288-0.255,1.935-0.322
				c0.38-0.04,0.76-0.065,1.143-0.077c1.062-0.035,2.13,0.037,3.182,0.222c0.725,0.122,1.443,0.298,2.147,0.525
				c0.418,0.132,0.83,0.285,1.235,0.455c0.395,0.165,0.782,0.345,1.165,0.545c0.637,0.327,1.255,0.702,1.85,1.125
				c0.69,0.488,1.35,1.037,1.97,1.65c0.008,0.01,0.017,0.018,0.025,0.027c0.503,0.498,0.965,1.018,1.382,1.563
				c0.085,0.107,0.165,0.215,0.245,0.325c1.51,2.057,2.457,4.397,2.84,6.813C470.936,216.015,470.998,217.043,470.958,218.068z"/>
			<path style="fill:#6343CB;" d="M467.69,207.863c-0.575,0.655-1.142,1.393-1.688,2.22c-4.055,6.165-12.11,9.165-19.86,7.273
				c-2.55-0.622-4.788-0.56-6.643-0.193c0.04-2.162,0.525-4.318,1.46-6.32c1.043-0.092,2.155-0.083,3.323,0.072
				c7.557,1,13.153-0.428,16.258-4.898c0.66-0.95,1.302-1.785,1.923-2.52c0.637,0.327,1.255,0.702,1.85,1.125
				c0.69,0.488,1.35,1.037,1.97,1.65c0.008,0.01,0.017,0.018,0.025,0.027C466.811,206.798,467.273,207.318,467.69,207.863z"/>
			<path style="fill:#6343CB;" d="M470.958,218.068c-0.955,1.103-2.223,2.253-3.9,3.348c-6.388,4.167-14.5,5.5-20.915,4.667
				c-1.528-0.2-2.815-0.048-3.888,0.3c-0.315-0.458-0.602-0.928-0.862-1.408c-0.348-0.643-0.65-1.305-0.9-1.98
				c1.135-0.345,2.402-0.52,3.79-0.413c6.392,0.5,13.775,0.665,20.775-3.335c2.845-1.625,4.617-3.088,5.717-4.247
				C470.936,216.015,470.998,217.043,470.958,218.068z"/>
			<path style="fill:#6343CB;" d="M469.233,224.673c-0.233,0.452-0.49,0.895-0.77,1.327c-3.558,2.817-8.33,5.162-13.863,4.582
				c-3.43-0.36-5.598,0.075-6.955,0.685c-0.032-0.015-0.062-0.032-0.092-0.05c-0.73-0.408-1.435-0.88-2.105-1.41
				c2.067-0.68,5.217-1.247,9.785-1.018C461.186,229.09,466.193,226.658,469.233,224.673z"/>
		</g>
		<path style="opacity:0.2;" d="M466.283,206.274c6.189,6.104,6.258,16.067,0.155,22.256c-4.239,4.299-10.338,5.643-15.743,4.019
			c8.627,1.042,16.317-10.234,12.155-18.944c-5.247-10.98-16.706-8.978-16.706-8.978
			C452.254,200.296,460.767,200.833,466.283,206.274z"/>
		
			<linearGradient id="SVGID_00000060731254875694858770000008519271006301466527_" gradientUnits="userSpaceOnUse" x1="1072.24" y1="118.044" x2="1078.5465" y2="125.5184" gradientTransform="matrix(0.6432 -0.7656 0.7656 0.6432 -342.2472 962.8745)">
			<stop  offset="0" style="stop-color:#FFFFFF"/>
			<stop  offset="1" style="stop-color:#FFFFFF;stop-opacity:0"/>
		</linearGradient>
		<path style="opacity:0.8;fill:url(#SVGID_00000060731254875694858770000008519271006301466527_);" d="M443.241,208.911
			c-1.733,2.766-5.373,10.428,1.353,18.145c0.654,0.75,1.811,0.775,2.494,0.051l0.33-0.35c0.6-0.636,0.614-1.626,0.029-2.276
			c-1.733-1.924-4.526-6.517-1.241-14c0.403-0.918-0.08-1.983-1.037-2.282l0,0C444.438,207.97,443.647,208.262,443.241,208.911z"/>
	</g>
	<g>
		<g>
			<g>
				<path style="fill:#05A2C2;" d="M432.273,277.545v0.003c-0.093,1.658-0.45,3.295-1.058,4.845
					c-0.283,0.727-0.622,1.435-1.017,2.117c-0.115,0.205-0.238,0.405-0.365,0.605c-0.325,0.51-0.683,1.005-1.073,1.478
					c-0.658,0.807-1.405,1.555-2.237,2.233c-0.28,0.23-0.575,0.452-0.875,0.665c-0.043,0.03-0.085,0.058-0.125,0.085
					c-0.08,0.057-0.163,0.112-0.243,0.165c-0.255,0.17-0.512,0.33-0.77,0.483c-0.323,0.193-0.652,0.367-0.985,0.53
					c-0.01,0.005-0.02,0.01-0.03,0.015c-0.837,0.41-1.702,0.74-2.58,0.99c-0.337,0.098-0.677,0.182-1.017,0.255
					c-0.235,0.05-0.47,0.095-0.705,0.133c-0.08,0.015-0.16,0.027-0.24,0.037c-0.8,0.122-1.605,0.18-2.405,0.178
					c-0.775-0.003-1.55-0.065-2.313-0.183c-0.032-0.005-0.065-0.01-0.097-0.017c-0.52-0.08-1.035-0.19-1.548-0.327
					c-0.1-0.023-0.2-0.053-0.302-0.08c-0.423-0.12-0.84-0.258-1.255-0.418c-0.527-0.2-1.045-0.427-1.552-0.685h-0.005
					c-0.12-0.063-0.242-0.125-0.362-0.188c-0.488-0.265-0.963-0.555-1.423-0.878c-0.137-0.09-0.272-0.188-0.405-0.287
					c-0.223-0.16-0.443-0.333-0.655-0.51c-0.112-0.092-0.223-0.185-0.332-0.283c0,0,0,0-0.003,0c-0.415-0.36-0.81-0.742-1.187-1.152
					c-0.01-0.008-0.018-0.018-0.025-0.025c-0.188-0.2-0.368-0.405-0.545-0.618c-0.265-0.322-0.523-0.658-0.77-1.007
					c-0.378-0.533-0.715-1.083-1.013-1.645c-0.073-0.13-0.14-0.26-0.205-0.392c-0.037-0.078-0.075-0.152-0.113-0.233
					c-0.295-0.61-0.542-1.232-0.75-1.862c-0.063-0.19-0.122-0.383-0.177-0.575c-0.71-2.473-0.793-5.057-0.28-7.525
					c0.168-0.805,0.395-1.598,0.688-2.367c0.57-1.515,1.38-2.95,2.415-4.242c0.022-0.027,0.042-0.058,0.065-0.085
					c0.345-0.43,0.72-0.84,1.12-1.237c0.047-0.045,0.092-0.09,0.14-0.135c0.063-0.063,0.128-0.125,0.193-0.185
					c0.045-0.045,0.092-0.087,0.138-0.13c0.375-0.345,0.772-0.672,1.19-0.985c0.122-0.095,0.25-0.188,0.377-0.277
					c0.24-0.165,0.483-0.33,0.728-0.483c0.485-0.302,0.982-0.577,1.492-0.822c0.06-0.03,0.12-0.06,0.18-0.088
					c0.305-0.142,0.61-0.275,0.92-0.397c0.148-0.057,0.295-0.115,0.443-0.168c0.152-0.052,0.302-0.102,0.452-0.15
					c0.905-0.295,1.825-0.5,2.753-0.622c0.06-0.008,0.117-0.015,0.177-0.022c0.367-0.045,0.732-0.078,1.103-0.095
					c0.17-0.008,0.337-0.015,0.505-0.015c0.485-0.01,0.97,0.003,1.453,0.04c0.38,0.027,0.758,0.07,1.133,0.125
					c0.342,0.05,0.682,0.11,1.02,0.185c0.445,0.095,0.887,0.21,1.322,0.345c0.25,0.078,0.498,0.163,0.745,0.253
					c0.69,0.25,1.365,0.548,2.015,0.895c0.385,0.205,0.765,0.428,1.133,0.665c0.37,0.24,0.73,0.495,1.083,0.768
					c0.553,0.43,1.08,0.897,1.58,1.408c0.092,0.092,0.182,0.185,0.27,0.282c0.365,0.385,0.713,0.795,1.04,1.228
					c0.113,0.15,0.225,0.303,0.332,0.458c0.008,0.01,0.015,0.02,0.023,0.03c0.32,0.46,0.615,0.932,0.883,1.412
					c0.132,0.24,0.26,0.485,0.38,0.73c0.813,1.668,1.307,3.43,1.495,5.207C432.303,275.845,432.323,276.695,432.273,277.545z"/>
			</g>
			<path style="fill:#008EC0;" d="M430.338,269.055c-0.535,0.345-1.253,0.675-2.208,0.95c-5.535,1.587-9.323-1.733-14.823-1.147
				c0,0,1.778-1.273,8-0.578c4.768,0.535,6.868-0.277,7.793-1.125c0.113,0.15,0.225,0.303,0.332,0.458
				c0.008,0.01,0.015,0.02,0.023,0.03C429.775,268.102,430.07,268.575,430.338,269.055z"/>
			<path style="fill:#008EC0;" d="M418.578,272.607c-6.688-0.625-6.438,1.335-13.188,1.25c-1.972-0.025-3.292-0.195-4.16-0.388
				c0.168-0.805,0.395-1.598,0.688-2.367c3.527,1.747,5.27,1.77,9.142,0.927C415.373,271.092,418.578,272.607,418.578,272.607z"/>
			<path style="fill:#008EC0;" d="M417.765,265.575c0,0-3.062-0.708-6.687,0c-1.675,0.327-3.713,0.133-5.42-0.173
				c0.063-0.063,0.128-0.125,0.193-0.185c0.045-0.045,0.092-0.087,0.138-0.13c0.375-0.345,0.772-0.672,1.19-0.985
				c1.22,0.19,2.7,0.29,4.4,0.16C414.818,264.012,417.765,265.575,417.765,265.575z"/>
			<path style="fill:#008EC0;" d="M432.273,277.545v0.003c-0.68,0.4-1.473,0.792-2.32,1.06c-7.688,2.438-9.063-1.188-16.645-2.25
				c0,0,2.783-1.212,9.308,0.3c4.265,0.988,7.718-0.51,9.598-1.665C432.303,275.845,432.323,276.695,432.273,277.545z"/>
			<path style="fill:#008EC0;" d="M431.215,282.392c-0.283,0.727-0.622,1.435-1.017,2.117c-6.485,1.253-15.005,0.795-19.35-0.402
				c-2.425-0.67-5.568-0.443-8.092-0.05c-0.073-0.13-0.14-0.26-0.205-0.392c-0.037-0.078-0.075-0.152-0.113-0.233
				c-0.295-0.61-0.542-1.232-0.75-1.862c-0.063-0.19-0.122-0.383-0.177-0.575c1.372-0.237,3.185-0.425,5.418-0.392
				c5.625,0.085,9.632,2.17,16.587,2.337C427.463,283.037,430.265,282.577,431.215,282.392z"/>
			<path style="fill:#008EC0;" d="M425.28,289.74c-0.255,0.17-0.512,0.33-0.77,0.483c-0.323,0.193-0.652,0.367-0.985,0.53
				c-4.908-0.27-7.95-1.54-11.177-1.86c-3.02-0.3-4.557-0.423-6.05-0.388c0,0,0,0-0.003,0c-0.415-0.36-0.81-0.742-1.187-1.152
				c0.625-0.005,1.317-0.005,2.075,0.005C412.808,287.44,418.326,289.572,425.28,289.74z"/>
		</g>
		<path style="opacity:0.2;" d="M429.434,267.613c4.996,7.088,3.3,16.882-3.788,21.878c-4.923,3.47-11.149,3.71-16.167,1.159
			c8.285,2.55,17.831-7.159,15.286-16.448c-3.208-11.708-14.812-11.771-14.812-11.771
			C416.718,259.262,424.981,261.296,429.434,267.613z"/>
		
			<linearGradient id="SVGID_00000039824643371162997000000003807544525603268772_" gradientUnits="userSpaceOnUse" x1="-924.9841" y1="-10.6206" x2="-918.6934" y2="-3.1649" gradientTransform="matrix(0.7689 -0.6394 0.6394 0.7689 1117.4165 -309.29)">
			<stop  offset="0" style="stop-color:#FFFFFF"/>
			<stop  offset="1" style="stop-color:#FFFFFF;stop-opacity:0"/>
		</linearGradient>
		<path style="opacity:0.8;fill:url(#SVGID_00000039824643371162997000000003807544525603268772_);" d="M406.345,266.124
			c-2.191,2.409-7.12,9.287-1.883,18.053c0.509,0.852,1.641,1.081,2.439,0.491l0.386-0.285c0.701-0.518,0.89-1.488,0.431-2.229
			c-1.36-2.196-3.29-7.199,1.26-13.964c0.558-0.83,0.272-1.961-0.614-2.424l0,0C407.687,265.412,406.858,265.56,406.345,266.124z"/>
	</g>
	<g>
		<path style="fill:#F06419;" d="M374.865,267.76c-0.064,0.549-0.14,1.097-0.229,1.643c-0.622,3.883-1.777,7.693-3.469,11.309
			c-1.067,2.277-2.344,4.478-3.834,6.572c-0.46,0.655-0.945,1.298-1.451,1.929c-0.652,0.817-1.341,1.613-2.061,2.39
			c-0.277,0.302-0.561,0.6-0.854,0.896c-0.402,0.414-0.82,0.823-1.247,1.222c-4.322,4.054-9.266,7.035-14.497,8.943
			c-2.887,1.058-5.862,1.789-8.867,2.195c-3.874,0.527-7.806,0.521-11.671-0.021c-2.701-0.375-5.368-1.012-7.965-1.902h-0.012
			c-0.351-0.116-0.695-0.241-1.042-0.372c-2.518-0.936-4.965-2.124-7.306-3.554c-2.926-1.783-5.673-3.957-8.178-6.511
			c-0.226-0.229-0.448-0.463-0.671-0.698c-0.79-0.841-1.536-1.704-2.24-2.588c-0.506-0.634-0.991-1.277-1.451-1.929
			c-0.259-0.357-0.506-0.716-0.747-1.079c-1.015-1.53-1.92-3.112-2.716-4.725c-0.125-0.256-0.25-0.509-0.366-0.768
			c-1.701-3.624-2.856-7.434-3.478-11.309c-0.085-0.546-0.161-1.094-0.226-1.643c-0.454-3.761-0.402-7.569,0.146-11.312
			c0.158-1.103,0.366-2.198,0.613-3.286c0.524-2.311,1.244-4.581,2.158-6.791c1.28-3.106,2.947-6.09,4.993-8.873
			c0.128-0.18,0.262-0.36,0.396-0.536c1.177-1.558,2.478-3.048,3.899-4.459c0.064-0.067,0.128-0.131,0.195-0.195
			c0.244-0.241,0.494-0.482,0.744-0.716c0.122-0.116,0.244-0.229,0.369-0.338c0.777-0.713,1.576-1.393,2.39-2.036
			c1.024-0.814,2.079-1.573,3.158-2.277c1.497-0.975,3.033-1.847,4.615-2.609c2.317-1.125,4.713-2.03,7.151-2.707
			c2.847-0.792,5.749-1.28,8.669-1.469c1.03-0.07,2.06-0.097,3.091-0.091c2.88,0.018,5.764,0.329,8.59,0.936
			c3.097,0.655,6.133,1.658,9.044,3.008c2.972,1.375,5.819,3.112,8.465,5.209c0.924,0.732,1.823,1.506,2.698,2.326
			c0.335,0.314,0.668,0.634,0.994,0.96c0.235,0.235,0.469,0.472,0.698,0.716c0.098,0.098,0.189,0.195,0.28,0.292
			c0.018,0.027,0.046,0.049,0.067,0.073c1.174,1.256,2.253,2.563,3.243,3.914c2.051,2.792,3.716,5.773,4.999,8.873
			c0.914,2.213,1.634,4.484,2.155,6.791c0.25,1.088,0.454,2.186,0.613,3.286C375.27,260.201,375.316,264.005,374.865,267.76z"/>
		<path style="fill:#FF9E4F;" d="M371.951,246.372h-78.746c1.28-3.106,2.947-6.09,4.993-8.873h68.754
			C369.003,240.291,370.668,243.272,371.951,246.372z"/>
		<path style="fill:#FF9E4F;" d="M371.167,280.712c-1.067,2.277-2.344,4.478-3.834,6.572H297.82
			c-0.259-0.357-0.506-0.716-0.747-1.079c-1.015-1.53-1.92-3.112-2.716-4.725c-0.125-0.256-0.25-0.509-0.366-0.768H371.167z"/>
		<path style="fill:#FF9E4F;" d="M365.882,289.213c-0.652,0.817-1.341,1.613-2.061,2.39c-0.277,0.302-0.561,0.6-0.854,0.896h-60.786
			c-0.226-0.229-0.448-0.463-0.671-0.698c-0.79-0.841-1.536-1.704-2.24-2.588H365.882z"/>
		<path style="fill:#FF9E4F;" d="M374.719,256.449h-84.284c0.158-1.103,0.366-2.198,0.613-3.286h83.059
			C374.356,254.251,374.56,255.348,374.719,256.449z"/>
		<path style="fill:#FF9E4F;" d="M374.865,267.76c-0.064,0.549-0.14,1.097-0.229,1.643h-84.122
			c-0.085-0.546-0.161-1.094-0.226-1.643H374.865z"/>
		<path style="fill:#FF9E4F;" d="M362.663,232.503h-60.17c0.064-0.067,0.128-0.131,0.195-0.195c0.244-0.241,0.494-0.482,0.744-0.716
			c0.122-0.116,0.244-0.229,0.369-0.338c0.777-0.713,1.576-1.393,2.39-2.036h52.782c0.924,0.732,1.823,1.506,2.698,2.326
			C362.005,231.857,362.337,232.176,362.663,232.503z"/>
		<path style="opacity:0.2;" d="M363.641,233.514c16.097,17.158,15.237,44.113-1.922,60.209
			c-11.918,11.181-28.554,14.174-43.001,9.214c23.222,3.724,45.208-25.963,34.865-49.959
			c-13.037-30.247-44.238-26.038-44.238-26.038C326.325,215.873,349.293,218.219,363.641,233.514z"/>
		
			<linearGradient id="SVGID_00000062155417112110060410000017882091086499586472_" gradientUnits="userSpaceOnUse" x1="587.4892" y1="-514.0275" x2="587.4892" y2="-474.3946" gradientTransform="matrix(0.0049 -1 1 0.0049 781.3221 852.5225)">
			<stop  offset="0" style="stop-color:#FFFFFF"/>
			<stop  offset="1" style="stop-color:#FFFFFF;stop-opacity:0"/>
		</linearGradient>
		<path style="opacity:0.8;fill:url(#SVGID_00000062155417112110060410000017882091086499586472_);" d="M301.043,238.224
			c-4.978,7.299-15.627,27.639,1.751,49.216c1.689,2.097,4.818,2.286,6.74,0.399l0.93-0.912c1.688-1.657,1.831-4.333,0.317-6.151
			c-4.483-5.386-11.556-18.102-1.885-37.994c1.187-2.441-0.008-5.371-2.564-6.281l0,0
			C304.381,235.805,302.21,236.513,301.043,238.224z"/>
	</g>
	<g>
		<path style="fill:#05A2C2;" d="M226.758,234.009c-0.207-0.212-0.407-0.428-0.604-0.647c-0.003-0.003-0.007-0.007-0.008-0.012
			c-4.013-4.478-5.729-10.273-5.165-15.872c0.469-4.662,2.516-9.194,6.133-12.723c1.241-1.211,2.593-2.233,4.025-3.07
			c0.463-0.272,0.938-0.525,1.418-0.756c7.79-3.767,17.435-2.352,23.811,4.181c1.323,1.355,2.423,2.849,3.298,4.43
			c0.548,0.986,1.007,2.008,1.38,3.054c1.379,3.861,1.572,8.048,0.585,11.995c-0.647,2.597-1.805,5.091-3.471,7.322
			c-0.64,0.862-1.357,1.682-2.147,2.453c-5.711,5.574-13.825,7.178-20.917,4.849c-0.002-0.002-0.003,0-0.003,0l-0.002-0.002
			c-1.198-0.392-2.364-0.895-3.484-1.512C229.859,236.741,228.222,235.508,226.758,234.009z"/>
		<path style="fill:#00E7C0;" d="M256.665,229.383c-1.65-3.403-4.172-4.617-5.667-6.834c-1.495-2.217,1.084-5.737,3.961-5.871
			c2.877-0.134,4.205,1.911,5.069,0.4c0.864-1.512-0.567-3.413,1.018-4.483c1.379,3.861,1.572,8.048,0.585,11.995
			c-0.647,2.597-1.805,5.091-3.471,7.322C257.693,231.271,257.177,230.441,256.665,229.383z"/>
		<path style="fill:#00E7C0;" d="M252.908,232.381c0,0,0.868-1.85-0.309-2.371c-1.178-0.522-2.518-1.553-3.203-0.885
			c-0.685,0.668-1.198,1.169-1.039,2.017C248.516,231.99,252.382,233.897,252.908,232.381z"/>
		<path style="fill:#00E7C0;" d="M226.758,234.009c-0.207-0.212-0.407-0.428-0.604-0.647c-0.003-0.003-0.007-0.007-0.008-0.012
			c-4.013-4.478-5.729-10.273-5.165-15.872c0.792,1.219,1.272,4.046,3.646,4.074c3.72,0.045,5.876,3.623,5.521,4.972
			c-0.355,1.349-0.555,3.883,1.609,6.785c1.276,1.712,0.609,3.343-0.15,4.39C229.859,236.741,228.222,235.508,226.758,234.009z"/>
		<path style="fill:#00E7C0;" d="M230.039,207.581c2.396-2.339,5.387,2.095,8.121-0.24c2.734-2.335,1.594-5.9-2.302-5.44
			c-1.472,0.173-3.206,0.078-4.719-0.216c8.007-4.677,18.46-3.51,25.229,3.425c1.323,1.355,2.423,2.849,3.298,4.43
			c-0.698,0.751-2.26,2.022-5.159,2.566c-4.238,0.794-1.654-3.064-4.89-1.243c-3.235,1.821-3.602,4.184-7.473,2.615
			c-3.871-1.569-5.118,3.659-8.48,1.927C230.303,213.672,227.643,209.919,230.039,207.581z"/>
		<path style="fill:#00E7C0;" d="M236.01,231.161c0,0-3.199-1.223-1.312-3.398c1.887-2.176,4.596-2.481,4.906-0.11
			c0.31,2.371,3.003,3.419,3.655,5.456c0.652,2.037,0.802,3.561-0.889,3.541c-1.691-0.02-6.446,1.613-6.075-1.089
			C236.666,232.861,236.683,231.508,236.01,231.161z"/>
		<path style="opacity:0.2;" d="M235.096,239.213c0.214,0.031,7.678,1.035,15.115-7.541c7.461-8.606-0.341-29.06-17.654-30.743
			c7.79-3.767,17.435-2.352,23.811,4.181c1.323,1.355,2.423,2.849,3.298,4.43c0.548,0.986,1.007,2.008,1.38,3.054
			c1.379,3.861,1.572,8.048,0.585,11.995c-0.647,2.597-1.805,5.091-3.471,7.322c-0.64,0.862-1.357,1.682-2.147,2.453
			C250.302,239.938,242.188,241.541,235.096,239.213z"/>
		
			<linearGradient id="SVGID_00000024720771810353010970000004153953744212054175_" gradientUnits="userSpaceOnUse" x1="-268.5313" y1="-212.6057" x2="-268.5313" y2="-190.3509" gradientTransform="matrix(-0.0684 -0.9976 0.9976 -0.0684 403.5682 -60.1585)">
			<stop  offset="0" style="stop-color:#FFFFFF"/>
			<stop  offset="1" style="stop-color:#FFFFFF;stop-opacity:0"/>
		</linearGradient>
		<path style="opacity:0.8;fill:url(#SVGID_00000024720771810353010970000004153953744212054175_);" d="M226.126,207.398
			c-2.487,4.292-7.613,16.12,3.006,27.487c1.032,1.105,2.792,1.082,3.79-0.054l0.483-0.549c0.877-0.997,0.847-2.502-0.076-3.458
			c-2.732-2.831-7.216-9.66-2.619-21.197c0.564-1.415-0.226-3.007-1.694-3.412l0,0C227.896,205.906,226.709,206.393,226.126,207.398
			z"/>
	</g>
	<g>
		<g>
			<path style="fill:#AFAFAF;" d="M355.708,129.322c0.412-0.343,0.833-0.676,1.265-0.999c0.134-0.104,0.271-0.207,0.41-0.305
				c1.207-0.881,2.49-1.687,3.844-2.409c0.062-0.034,0.123-0.067,0.186-0.099c0.233-0.122,0.47-0.243,0.704-0.36
				c0.115-0.059,0.228-0.113,0.345-0.168c0.729-0.351,1.464-0.672,2.202-0.964c0.932-0.369,1.872-0.694,2.819-0.97
				c1.314-0.384,2.633-0.686,3.962-0.893c1.947-0.311,3.904-0.447,5.841-0.401c2.264,0.048,4.498,0.333,6.68,0.84
				c0.771,0.176,1.534,0.384,2.288,0.616c2.107,0.651,4.153,1.517,6.09,2.586c2.125,1.166,4.129,2.573,5.966,4.207
				c1.874,1.666,3.579,3.57,5.054,5.693c0.276,0.396,0.545,0.802,0.805,1.215c0.225,0.357,0.445,0.719,0.659,1.087
				c0.176,0.303,0.348,0.612,0.516,0.923c0.118,0.223,0.24,0.45,0.352,0.679c0.051,0.093,0.098,0.185,0.141,0.276
				c0.008,0.025,0.024,0.045,0.034,0.068c0.583,1.18,1.085,2.377,1.512,3.588c0.467,1.315,0.844,2.649,1.132,3.988
				c0.259,1.205,0.452,2.415,0.572,3.623c0.181,1.826,0.205,3.65,0.077,5.456c-0.057,0.854-0.152,1.703-0.279,2.546
				c-0.03,0.194-0.059,0.389-0.092,0.583c-0.442,2.669-1.22,5.269-2.303,7.742c-0.167,0.388-0.346,0.773-0.531,1.153
				c-0.99,2.039-2.193,3.982-3.596,5.788c-0.461,0.595-0.942,1.175-1.447,1.737c-1.287,1.433-2.711,2.765-4.266,3.97
				c-0.261,0.204-0.525,0.404-0.796,0.601c-0.227,0.168-0.461,0.333-0.695,0.494c-0.66,0.453-1.341,0.884-2.041,1.295
				c-0.27,0.161-0.542,0.316-0.823,0.468c-0.387,0.215-0.783,0.423-1.182,0.621c-1.48,0.733-2.989,1.345-4.515,1.837
				c-2.561,0.827-5.168,1.319-7.773,1.49c-0.104,0.01-0.215,0.016-0.322,0.023c-1.139,0.065-2.278,0.073-3.408,0.019
				c-1.204-0.056-2.397-0.182-3.58-0.37c-2.913-0.463-5.753-1.321-8.43-2.544c-0.041-0.019-0.08-0.036-0.121-0.055
				c-1.897-0.87-3.712-1.927-5.42-3.156l-0.008-0.002c-0.232-0.162-0.457-0.331-0.682-0.503c-0.331-0.252-0.657-0.508-0.978-0.773
				c-1.275-1.046-2.474-2.199-3.594-3.451c-0.943-1.053-1.823-2.177-2.632-3.369c-0.002-0.002-0.002-0.002-0.002-0.002
				c-0.694-1.02-1.334-2.091-1.921-3.212c-0.117-0.218-0.227-0.44-0.339-0.659c-0.393-0.792-0.749-1.591-1.069-2.395
				c-0.232-0.575-0.445-1.155-0.638-1.734c-0.11-0.319-0.21-0.637-0.308-0.956c-0.211-0.699-0.396-1.4-0.558-2.101
				c-0.149-0.655-0.28-1.311-0.39-1.965c-0.033-0.215-0.07-0.429-0.097-0.644c-0.148-1-0.247-2.002-0.298-3.001
				c-0.107-2.034-0.02-4.063,0.248-6.06c0.06-0.418,0.125-0.838,0.199-1.255c0.378-2.155,0.971-4.265,1.766-6.297
				c0.26-0.664,0.54-1.319,0.845-1.964c0.36-0.773,0.754-1.531,1.175-2.273c0.658-1.163,1.39-2.283,2.192-3.358
				c0.287-0.388,0.586-0.771,0.893-1.146C352.643,132.137,354.101,130.659,355.708,129.322z"/>
			<path style="fill:#807D8A;" d="M344.816,161.685c3.388,2.351,8.166,3.524,12.393,3.684c5.898,0.222,15.552-9.44,27.755,1.329
				c7.364,6.499,9.975,11.264,10.89,14.023c-0.227,0.168-0.461,0.333-0.695,0.494c-0.66,0.453-1.341,0.884-2.041,1.295
				c-0.27,0.161-0.542,0.316-0.823,0.468c-0.387,0.215-0.783,0.423-1.182,0.621c-1.48,0.733-2.989,1.345-4.515,1.837
				c-1.33-3.501-4.077-9.285-8.589-12.497c-6.771-4.818-12.598,1.192-19.083,1.163c-4.074-0.018-7.095-0.62-9.275-1.357
				c-0.002-0.002-0.002-0.002-0.002-0.002c-0.694-1.02-1.334-2.091-1.921-3.212c-0.117-0.218-0.227-0.44-0.339-0.659
				c-0.393-0.792-0.749-1.591-1.069-2.395c-0.232-0.575-0.445-1.155-0.638-1.734c-0.11-0.319-0.21-0.637-0.308-0.956
				C345.162,163.087,344.977,162.386,344.816,161.685z"/>
			<path style="fill:#807D8A;" d="M355.876,179.564c3.155,1.008,7.779,1.774,12.119-0.189c5.965-2.697,10.612,3.357,10.829,7.55
				c-0.104,0.01-0.215,0.016-0.322,0.023c-1.139,0.065-2.278,0.073-3.408,0.019c-0.109-1.311-0.795-2.934-3.112-4.141
				c-2.933-1.528-5.447,0.53-8.897,1.227c-0.041-0.019-0.08-0.036-0.121-0.055c-1.897-0.87-3.712-1.927-5.42-3.156l-0.008-0.002
				c-0.232-0.162-0.457-0.331-0.682-0.503C356.523,180.085,356.197,179.829,355.876,179.564z"/>
			<path style="fill:#807D8A;" d="M346.244,142.464c2.313,0.511,5.138,0.695,8.333,0.036c9.007-1.856,27.059-8.959,46.257,8.035
				c3.685,3.263,6.225,6.366,7.959,9.193c-0.442,2.669-1.22,5.269-2.303,7.742c-0.167,0.388-0.346,0.773-0.531,1.153
				c-0.99,2.039-2.193,3.982-3.596,5.788c-1.003-2.807-2.561-6.305-4.971-10.479c-7.221-12.502-30.089-13.537-41.881-9.277
				c-5.172,1.868-8.909,1.933-11.479,1.418c-0.107-2.034-0.02-4.063,0.248-6.06c0.06-0.418,0.125-0.838,0.199-1.255
				C344.856,146.606,345.449,144.496,346.244,142.464z"/>
			<path style="fill:#807D8A;" d="M355.708,129.322c9.129,0.943,11.979-5.237,26.774-1.957c10.005,2.219,17.369,6.467,21.688,9.546
				c0.225,0.357,0.445,0.719,0.659,1.087c0.176,0.303,0.348,0.612,0.516,0.923c0.118,0.223,0.24,0.45,0.352,0.679
				c0.051,0.093,0.098,0.185,0.141,0.276c0.008,0.025,0.024,0.045,0.034,0.068c0.583,1.18,1.085,2.377,1.512,3.588
				c0.467,1.315,0.844,2.649,1.132,3.988c-14.174-17.274-35.873-16.614-45.237-13.435c-5.803,1.968-10.234,1.477-12.821,0.783
				c0.287-0.388,0.586-0.771,0.893-1.146C352.643,132.137,354.101,130.659,355.708,129.322z"/>
			<path style="opacity:0.2;" d="M405.838,139.878c8.006,16.142,1.413,35.714-14.729,43.721
				c-11.212,5.561-24.072,4.076-33.567-2.757c16.203,7.868,38.89-9.035,36.616-28.917c-2.867-25.061-26.675-28.878-26.675-28.878
				C382.38,118.689,398.701,125.49,405.838,139.878z"/>
			
				<linearGradient id="SVGID_00000132075848360420082580000011919514216404603534_" gradientUnits="userSpaceOnUse" x1="869.3693" y1="-625.9243" x2="848.1253" y2="-616.3528" gradientTransform="matrix(-0.6952 -0.7188 0.7188 -0.6952 1391.3488 330.3192)">
				<stop  offset="0" style="stop-color:#FFFFFF"/>
				<stop  offset="0.1449" style="stop-color:#FFFFFF;stop-opacity:0.84"/>
				<stop  offset="1" style="stop-color:#FFFFFF;stop-opacity:0"/>
			</linearGradient>
			<path style="opacity:0.8;fill:url(#SVGID_00000132075848360420082580000011919514216404603534_);" d="M358.898,129.483
				c-5.264,4.25-17.573,16.808-9.604,36.473c0.774,1.912,3.027,2.742,4.853,1.784l0.884-0.463c1.604-0.841,2.301-2.772,1.593-4.44
				c-2.096-4.941-4.468-15.829,7.023-28.275c1.41-1.527,1.182-3.94-0.49-5.173l0,0C361.881,128.448,360.132,128.487,358.898,129.483
				z"/>
		</g>
		<g>
			<g>
				<path style="fill:#FFA600;" d="M426.899,170.33c-2.344-2.443-5.867-5.209-10.47-8.218c-2.246-1.47-4.708-2.972-7.352-4.488
					c-0.016,0.163-0.033,0.326-0.051,0.488c-0.132,1.171-0.331,2.333-0.591,3.485c-0.143,0.626-0.301,1.248-0.481,1.867
					c-0.09,0.309-0.184,0.617-0.281,0.925c-0.359,1.115-0.781,2.217-1.268,3.299c0.553,0.329,1.095,0.66,1.626,0.985
					c5.125,3.148,8.25,5.525,10.139,7.197c-2.515-0.189-6.398-0.769-12.23-2.241c-0.824-0.208-1.664-0.428-2.521-0.661
					c-1.009-0.276-2.039-0.566-3.088-0.872l-0.002-0.001c-1.062-0.311-2.143-0.638-3.242-0.982l-0.002-0.001
					c-7.42-2.315-15.608-5.331-23.82-8.796c-5.069-2.139-10.01-4.391-14.658-6.671c-5.099-2.501-9.846-5.038-14.018-7.498
					l-0.001-0.003c-0.763-0.449-1.505-0.896-2.227-1.34c-5.124-3.15-8.249-5.527-10.139-7.197c2.515,0.187,6.398,0.766,12.23,2.241
					c0.602,0.153,1.214,0.312,1.836,0.476c0,0,0,0,0.002,0.001c0.011-0.026,0.019-0.05,0.029-0.074
					c0.127-0.314,0.258-0.623,0.391-0.932c-0.001-0.003,0-0.005,0.003-0.006c0.059-0.135,0.118-0.267,0.179-0.401
					c0.121-0.268,0.248-0.534,0.375-0.799c0.16-0.325,0.324-0.649,0.496-0.971c0.107-0.2,0.216-0.403,0.327-0.602
					c0.147-0.27,0.299-0.535,0.457-0.8c0.155-0.266,0.317-0.53,0.486-0.791c0.066-0.102,0.129-0.204,0.197-0.305
					c0.043-0.065,0.086-0.133,0.13-0.201c0.083-0.125,0.166-0.249,0.252-0.375c0.085-0.124,0.17-0.247,0.258-0.372
					c0.07-0.1,0.14-0.199,0.212-0.298c0.084-0.114,0.167-0.228,0.251-0.343c0.024-0.033,0.045-0.065,0.069-0.098
					c0.092-0.128,0.185-0.254,0.281-0.378c0.149-0.196,0.299-0.391,0.455-0.581c0.163-0.205,0.329-0.408,0.497-0.608
					c-2.931-0.836-5.725-1.552-8.345-2.135c-5.368-1.198-9.807-1.792-13.193-1.766c-5.306,0.037-8.695,1.71-10.072,4.973
					c-1.376,3.261-0.21,6.856,3.465,10.685c2.345,2.441,5.868,5.207,10.47,8.218c3.102,2.028,6.617,4.122,10.451,6.229
					c6.537,3.597,14.006,7.237,21.942,10.684c0.996,0.433,1.998,0.861,3.007,1.286c8.048,3.396,15.97,6.343,23.275,8.672
					c0.914,0.295,1.822,0.576,2.718,0.848c4.181,1.278,8.129,2.333,11.745,3.139c5.368,1.196,9.808,1.79,13.193,1.766
					c5.307-0.039,8.696-1.712,10.072-4.973C431.741,177.752,430.575,174.157,426.899,170.33z"/>
			</g>
		</g>
		<g>
			<path style="fill:#F6DB3E;" d="M424.41,172.782c-2.182-2.178-5.516-4.707-9.909-7.518c-1.876-1.199-3.904-2.428-6.067-3.667
				c-0.143,0.626-0.301,1.248-0.481,1.867c-0.09,0.309-0.184,0.617-0.281,0.925c1.887,1.095,3.665,2.177,5.321,3.236
				c10.454,6.689,11.98,9.96,11.686,10.657c-0.294,0.697-3.703,1.889-15.789-0.933c-2.313-0.54-4.774-1.188-7.355-1.93
				c-8.753-2.525-18.872-6.164-29.25-10.543c-4.42-1.865-8.709-3.788-12.789-5.733c-5.577-2.654-10.761-5.344-15.349-7.964
				c-2.266-1.296-4.387-2.573-6.338-3.822c-10.454-6.689-11.982-9.963-11.688-10.66c0.294-0.697,3.704-1.885,15.79,0.936
				c1.859,0.435,3.813,0.937,5.847,1.504c0.002,0.001,0.002,0.001,0.004,0.002c0.107-0.2,0.216-0.403,0.327-0.602
				c0.147-0.27,0.299-0.535,0.457-0.8c0.155-0.266,0.317-0.53,0.486-0.791c0.066-0.102,0.129-0.204,0.197-0.305l-0.002-0.001
				c-2.331-0.662-4.564-1.241-6.679-1.736c-5.079-1.185-9.217-1.809-12.3-1.853c-3.766-0.051-5.961,0.784-6.708,2.556
				c-0.748,1.772,0.184,3.929,2.85,6.589c2.182,2.18,5.516,4.709,9.909,7.52c2.341,1.497,4.918,3.033,7.693,4.592
				c0,0,0,0,0.002,0.001c5.138,2.882,10.953,5.832,17.182,8.717c3.241,1.502,6.593,2.984,10.019,4.43
				c9.945,4.196,19.665,7.722,28.209,10.255c3.121,0.927,6.085,1.719,8.846,2.364c5.079,1.185,9.217,1.809,12.301,1.851
				c3.765,0.053,5.961-0.784,6.708-2.556C428.008,177.599,427.075,175.444,424.41,172.782z"/>
		</g>
	</g>
</g>
<g id="DESIGNED_BY_FREEPIK">
	<g>
		<g id="XMLID_1_">
			<g id="XMLID_20_">
				<path id="XMLID_28_" style="fill:#F7FAFB;" d="M260.104,465.465c-0.432,0.443-0.803,0.931-1.108,1.453l-0.465-0.241
					c-0.067-0.298-0.349-0.503-0.659-0.466c-0.331,0.039-0.568,0.339-0.529,0.67c0.039,0.331,0.339,0.568,0.67,0.529
					c0.065-0.008,0.127-0.026,0.183-0.052l0.452,0.234c-0.251,0.554-0.433,1.139-0.539,1.744l0.747,0.132
					c0.23-1.306,0.85-2.507,1.792-3.473L260.104,465.465z"/>
				<path id="XMLID_27_" style="fill:#F7FAFB;" d="M265.592,463.163c-0.171,0-0.341,0.006-0.51,0.017l-0.074-0.626
					c0.188-0.149,0.296-0.389,0.266-0.645c-0.046-0.393-0.402-0.674-0.795-0.628c-0.393,0.046-0.674,0.402-0.628,0.795
					c0.03,0.254,0.189,0.461,0.405,0.564l0.073,0.624c-0.714,0.116-1.403,0.332-2.06,0.646l0.327,0.684
					c0.934-0.447,1.942-0.673,2.995-0.673c0.496,0,0.993,0.053,1.475,0.158l0.161-0.741
					C266.692,463.222,266.142,463.163,265.592,463.163z"/>
				<path id="XMLID_26_" style="fill:#F7FAFB;" d="M272.194,465.711c0.331-0.04,0.566-0.341,0.526-0.672
					c-0.04-0.331-0.341-0.566-0.672-0.526c-0.309,0.038-0.535,0.304-0.53,0.609l-0.416,0.363c-0.418-0.43-0.89-0.813-1.408-1.139
					l-0.404,0.641c1.134,0.715,2.021,1.726,2.563,2.925l0.691-0.313c-0.251-0.554-0.568-1.072-0.942-1.545l0.402-0.351
					C272.065,465.716,272.129,465.719,272.194,465.711z"/>
				<path id="XMLID_25_" style="fill:#F7FAFB;" d="M265.044,473.372c-0.386,0.023-0.775,0.035-1.157,0.035
					c-0.88,0-1.733-0.061-2.478-0.179c-0.39-0.062-0.846-0.155-1.27-0.292c1.046,1.861,3.069,3.125,5.388,3.125
					c2.855,0,5.262-1.916,5.95-4.504c-0.682,0.449-1.505,0.825-2.459,1.123C267.839,473.047,266.464,473.286,265.044,473.372z"/>
				<path id="XMLID_21_" style="fill:#F7FAFB;" d="M265.592,464.68c-3.352,0-6.08,2.666-6.08,5.943c0,0.426,0.046,0.849,0.137,1.261
					c0.673,0.483,2.706,0.89,5.348,0.731c2.879-0.173,5.297-0.957,6.672-2.159c-0.005-0.195-0.021-0.39-0.045-0.582
					C271.244,466.913,268.65,464.68,265.592,464.68z M263.432,471.194c-1.02,0-1.85-0.83-1.85-1.85c0-1.02,0.83-1.85,1.85-1.85
					c1.02,0,1.85,0.83,1.85,1.85C265.282,470.365,264.452,471.194,263.432,471.194z M268.17,470.286c-0.75,0-1.36-0.61-1.36-1.36
					s0.61-1.361,1.36-1.361c0.75,0,1.361,0.61,1.361,1.361S268.92,470.286,268.17,470.286z"/>
			</g>
			<path id="XMLID_18_" style="fill:#F7FAFB;" d="M281.595,466.547c-0.295-0.116-0.805-0.309-1.382-0.237
				c-0.551,0.069-0.844,0.341-0.844,1.007v0.866h2.228v1.717h-2.228v5.455h-1.932v-5.455h-1.34v-1.717h1.34v-0.888
				c0-1.68,0.896-2.783,2.568-2.783c0.643,0,1.157,0.122,1.59,0.308L281.595,466.547z"/>
			<path id="XMLID_16_" style="fill:#F7FAFB;" d="M286.298,469.879c-0.177-0.03-0.358-0.046-0.526-0.046
				c-0.896,0-1.51,0.548-1.51,1.614v3.908h-1.932v-7.172h1.873v0.785c0.451-0.673,1.14-0.977,2.021-0.977
				c0.414,0,0.848,0.128,1.094,0.337L286.298,469.879z"/>
			<path id="XMLID_13_" style="fill:#F7FAFB;" d="M293.965,471.757c0,0.222-0.015,0.489-0.037,0.651h-5.085
				c0.207,1.036,0.933,1.488,1.843,1.488c0.622,0,1.295-0.252,1.813-0.688l1.132,1.243c-0.814,0.748-1.85,1.088-3.057,1.088
				c-2.198,0-3.723-1.495-3.723-3.753c0-2.258,1.48-3.797,3.627-3.797C292.544,467.99,293.958,469.522,293.965,471.757z
				 M288.851,471.091h3.175c-0.177-0.918-0.733-1.436-1.562-1.436C289.554,469.655,289.021,470.203,288.851,471.091z"/>
			<path id="XMLID_10_" style="fill:#F7FAFB;" d="M301.618,471.757c0,0.222-0.015,0.489-0.037,0.651h-5.085
				c0.207,1.036,0.933,1.488,1.843,1.488c0.622,0,1.295-0.252,1.813-0.688l1.132,1.243c-0.814,0.748-1.85,1.088-3.057,1.088
				c-2.198,0-3.723-1.495-3.723-3.753c0-2.258,1.48-3.797,3.627-3.797C300.197,467.99,301.611,469.522,301.618,471.757z
				 M296.504,471.091h3.175c-0.178-0.918-0.733-1.436-1.562-1.436C297.207,469.655,296.674,470.203,296.504,471.091z"/>
			<path id="XMLID_7_" style="fill:#F7FAFB;" d="M309.964,471.764c0,2.154-1.495,3.775-3.471,3.775
				c-0.962,0-1.643-0.378-2.109-0.933v3.708h-1.924v-10.133h1.887v0.792c0.466-0.585,1.155-0.984,2.139-0.984
				C308.469,467.99,309.964,469.61,309.964,471.764z M304.287,471.764c0,1.132,0.747,1.976,1.843,1.976
				c1.14,0,1.85-0.881,1.85-1.976c0-1.095-0.71-1.976-1.85-1.976C305.035,469.788,304.287,470.632,304.287,471.764z"/>
			<path id="XMLID_4_" style="fill:#F7FAFB;" d="M313.068,465.836c0,0.696-0.54,1.229-1.236,1.229c-0.696,0-1.229-0.533-1.229-1.229
				c0-0.696,0.533-1.243,1.229-1.243C312.527,464.592,313.068,465.14,313.068,465.836z M312.809,475.354h-1.932v-7.172h1.932
				V475.354z"/>
			<path id="XMLID_2_" style="fill:#F7FAFB;" d="M316.032,470.736l2.701-2.554h2.368l-3.479,3.375l3.501,3.797h-2.376l-2.716-2.901
				v2.901H314.1v-10.658h1.932V470.736z"/>
		</g>
		<g>
			<path style="fill:#F7FAFB;" d="M184.412,475.289v-1.055c-0.527,0.718-1.391,1.23-2.387,1.23c-1.846,0-3.149-1.406-3.149-3.706
				c0-2.256,1.289-3.721,3.149-3.721c0.952,0,1.816,0.469,2.387,1.245v-3.765h1.099v9.77H184.412z M184.412,473.37v-3.208
				c-0.395-0.615-1.245-1.143-2.124-1.143c-1.421,0-2.27,1.172-2.27,2.739c0,1.567,0.85,2.724,2.27,2.724
				C183.168,474.483,184.017,473.986,184.412,473.37z"/>
			<path style="fill:#F7FAFB;" d="M186.932,471.744c0-2.051,1.465-3.706,3.486-3.706c2.139,0,3.398,1.67,3.398,3.794v0.279h-5.727
				c0.088,1.333,1.025,2.446,2.549,2.446c0.805,0,1.626-0.322,2.182-0.894l0.527,0.718c-0.703,0.703-1.655,1.084-2.812,1.084
				C188.44,475.465,186.932,473.956,186.932,471.744z M190.403,468.947c-1.509,0-2.256,1.274-2.314,2.358h4.643
				C192.718,470.25,192.015,468.947,190.403,468.947z"/>
			<path style="fill:#F7FAFB;" d="M194.607,474.351l0.571-0.791c0.469,0.542,1.362,1.011,2.329,1.011c1.084,0,1.67-0.513,1.67-1.216
				c0-1.714-4.38-0.659-4.38-3.281c0-1.098,0.952-2.036,2.636-2.036c1.201,0,2.051,0.454,2.622,1.026l-0.513,0.762
				c-0.424-0.513-1.201-0.894-2.109-0.894c-0.967,0-1.567,0.483-1.567,1.113c0,1.552,4.38,0.527,4.38,3.281
				c0,1.187-0.952,2.138-2.783,2.138C196.306,475.465,195.325,475.113,194.607,474.351z"/>
			<path style="fill:#F7FAFB;" d="M201.477,466.471c0-0.41,0.337-0.747,0.732-0.747c0.41,0,0.747,0.337,0.747,0.747
				c0,0.41-0.337,0.732-0.747,0.732C201.814,467.203,201.477,466.881,201.477,466.471z M201.667,475.289v-7.075h1.099v7.075H201.667
				z"/>
			<path style="fill:#F7FAFB;" d="M204.582,477.105l0.556-0.82c0.586,0.703,1.289,0.967,2.3,0.967c1.172,0,2.27-0.571,2.27-2.124
				v-1.011c-0.513,0.718-1.377,1.26-2.373,1.26c-1.845,0-3.149-1.377-3.149-3.662c0-2.27,1.289-3.677,3.149-3.677
				c0.952,0,1.802,0.469,2.373,1.245v-1.069h1.098v6.87c0,2.344-1.641,3.076-3.369,3.076
				C206.237,478.16,205.417,477.926,204.582,477.105z M209.709,473.253v-3.091c-0.381-0.615-1.23-1.143-2.109-1.143
				c-1.421,0-2.27,1.128-2.27,2.695c0,1.553,0.849,2.695,2.27,2.695C208.478,474.41,209.328,473.868,209.709,473.253z"/>
			<path style="fill:#F7FAFB;" d="M217.413,475.289v-4.629c0-1.245-0.63-1.641-1.582-1.641c-0.865,0-1.685,0.527-2.095,1.099v5.17
				h-1.099v-7.075h1.099v1.025c0.498-0.586,1.465-1.201,2.519-1.201c1.48,0,2.256,0.747,2.256,2.285v4.966H217.413z"/>
			<path style="fill:#F7FAFB;" d="M219.932,471.744c0-2.051,1.465-3.706,3.486-3.706c2.139,0,3.398,1.67,3.398,3.794v0.279h-5.727
				c0.088,1.333,1.025,2.446,2.549,2.446c0.806,0,1.626-0.322,2.183-0.894l0.527,0.718c-0.703,0.703-1.655,1.084-2.812,1.084
				C221.441,475.465,219.932,473.956,219.932,471.744z M223.404,468.947c-1.509,0-2.256,1.274-2.314,2.358h4.643
				C225.718,470.25,225.015,468.947,223.404,468.947z"/>
			<path style="fill:#F7FAFB;" d="M233.35,475.289v-1.055c-0.527,0.718-1.392,1.23-2.388,1.23c-1.846,0-3.149-1.406-3.149-3.706
				c0-2.256,1.289-3.721,3.149-3.721c0.952,0,1.817,0.469,2.388,1.245v-3.765h1.098v9.77H233.35z M233.35,473.37v-3.208
				c-0.396-0.615-1.245-1.143-2.124-1.143c-1.421,0-2.27,1.172-2.27,2.739c0,1.567,0.849,2.724,2.27,2.724
				C232.105,474.483,232.954,473.986,233.35,473.37z"/>
			<path style="fill:#F7FAFB;" d="M239.692,475.289v-9.77h1.098v3.765c0.572-0.776,1.421-1.245,2.388-1.245
				c1.845,0,3.149,1.465,3.149,3.721c0,2.299-1.304,3.706-3.149,3.706c-0.996,0-1.86-0.513-2.388-1.23v1.055H239.692z
				 M242.9,474.483c1.436,0,2.285-1.157,2.285-2.724c0-1.568-0.85-2.739-2.285-2.739c-0.864,0-1.728,0.527-2.109,1.143v3.208
				C241.171,473.986,242.036,474.483,242.9,474.483z"/>
			<path style="fill:#F7FAFB;" d="M247.528,477.061c0.161,0.073,0.425,0.117,0.601,0.117c0.483,0,0.805-0.161,1.055-0.747
				l0.469-1.069l-2.959-7.148h1.187l2.358,5.8l2.344-5.8h1.201l-3.545,8.51c-0.425,1.025-1.143,1.421-2.08,1.435
				c-0.234,0-0.601-0.044-0.806-0.103L247.528,477.061z"/>
		</g>
	</g>
</g>
</svg>
